<?xml version="1.0" encoding="UTF-8"?>
<svg xmlns="http://www.w3.org/2000/svg" viewBox="0 0 1199.77 1199.77">
  <defs>
    <style>
      .cls-1 {
        fill: #fff;
      }

      .cls-2 {
        fill: #ff5959;
      }

      .cls-3 {
        fill: #00b7ff;
      }

      .cls-4 {
        fill: #fcfcfc;
      }
    </style>
  </defs>
  <g id="_图层_1" data-name="图层 1">
    <path class="cls-3" d="M599.88,0C268.58,0,0,268.58,0,599.88s268.58,599.88,599.88,599.88,599.88-268.58,599.88-599.88S931.19,0,599.88,0Zm1.21,1056.16c-251.9,0-456.1-204.21-456.1-456.11S349.2,143.95,601.1,143.95s456.11,204.21,456.11,456.1-204.21,456.11-456.11,456.11Z"/>
    <path class="cls-3" d="M307.87,487.26c13.98,41.08,37.57,51.07,89.23,112.71,51.66,61.64,4.7,140.89-43.44,170.83h93.34c28.18-76.32,68.68-117.99-7.63-218.96-24.07-29.94-100.38-85.71-68.1-151.46,32.29-65.75,111.54-42.27,133.84-31.11,1.17-22.7,2.74-46.96,3.52-58.12-90.4-49.31-250.67,21.72-200.77,176.11Z"/>
    <path class="cls-3" d="M691.4,343.42h-2.94s1.17,511.9,1.17,511.9c-.59,31.7-30.53,60.46-71.62,61.05-32.87,0-71.03-27-71.03-53.42s-.59-358.68-.59-358.68h-59.88v373.94c23.48,68.68,58.7,98.62,137.37,98.62s114.47-42.27,129.73-82.18v-202.53c106.84-21.13,157.91-76.31,157.91-167.89s-79.84-181.98-220.14-180.81Zm161.63,171.02c0,78.27-75.83,116.63-108.8,119.76v-133.85s-.78-57.14,0-86.88c53.22,0,110.36,43.05,108.8,100.97Z"/>
    <path class="cls-2" d="M502.37,343.13c-4.11,35.81,14.09,84.53,56.94,117.41,42.85,32.87,109.19,103.32-9.39,195.48,66.33-.59,90.99,0,90.99,0,57.53-60.47,51.47-149.53,17.21-189.54-13.69-19.45-108.79-69.35-83.21-141.86,10.81-27.43,39.66-68.94,144.07-32.56v-58.7c-89.23-29.35-210.16,4.11-216.62,109.78Z"/>
    <g>
      <path class="cls-1" d="M228.77,935.78c-.71-.82-1.71-1.56-3-2.22-1.29-.66-3.08-1.93-5.38-3.81,3.96-3.99,5.42-8.51,4.36-13.57-1.06-5.06-2.74-8.92-5.04-11.58-1.86-2.15-3.84-2.32-5.93-.51-1.01,.88-1.85,2.15-2.5,3.83-2.19,5.78-10.29,14.45-24.29,26.02-4.56-.92-10.66-2.17-18.29-3.76-7.63-1.59-12.26-2.65-13.88-3.18-1.62-.53-3.32-1.44-5.1-2.73-1.78-1.28-3.38-1.31-4.8-.08-1.42,1.23-2.98,3.63-4.65,7.19-1.68,3.56-1.78,6.19-.3,7.9,.77,.89,2.38,1.79,4.83,2.71,2.46,.92,5.72,2.57,9.79,4.97,4.07,2.4,7.22,4.63,9.44,6.69,.1,1.91,.94,3.77,2.53,5.61,2.14,2.47,4.44,3.46,6.91,2.99,1.61,1.6,3.59,3.76,5.94,6.48,2.35,2.72,4.77,5.92,7.23,9.6,2.46,3.68,4.17,6.83,5.11,9.44,.94,2.62,2.2,4.84,3.79,6.68,3.01,3.48,6.29,3.68,9.83,.62,1.77-1.53,2.29-4.81,1.55-9.81-.74-5.01-2.34-8.94-4.81-11.78-1.92-2.21-8.19-8.3-18.8-18.26,1.08-1.05,2.26-2.12,3.52-3.22,4.93-4.27,9.81-7.78,14.64-10.52,3.44,.78,7.46,2.48,12.05,5.09,4.59,2.61,7.51,4.54,8.75,5.79,1.25,1.25,2.46,1.88,3.65,1.91,1.19,.03,2.31-.43,3.39-1.36,2.28-1.97,3.26-4.73,2.95-8.29-.31-3.55-1.48-6.5-3.5-8.84Zm-56.54,9.11c-7.81-6.97-14.92-12.43-21.34-16.39-.28-.2-.59-.49-.92-.87-.33-.38-.37-.68-.11-.9,.25-.22,.64-.22,1.16,0,6.06,2.28,17.11,5.44,33.14,9.5-4.58,3.53-8.56,6.42-11.92,8.67Z"/>
      <path class="cls-1" d="M330.2,1008.51c-1.46-1.05-4.18-1.97-8.15-2.75,1.89-.91,3.35-2.08,4.37-3.51,1.02-1.43,1.46-3.79,1.3-7.1-.16-3.3-.98-5.49-2.48-6.56-.88-.63-1.97-.88-3.27-.72-1.3,.15-4.11,1.07-8.46,2.74-4.34,1.68-9.01,3.74-14.01,6.18-5,2.44-8.86,4.64-11.6,6.59-12.7,8.81-22.21,14.97-28.53,18.47-2.56-1.32-4.08-1.63-4.57-.96-.49,.68-.59,2.05-.31,4.1-5.11,3.54-9.13,5.91-12.05,7.12,.55-1.05,1.58-2.63,3.09-4.74,1.51-2.11,3.64-4.47,6.39-7.08,2.75-2.61,5.18-4.5,7.3-5.66,2.12-1.16,4.01-2.89,5.66-5.21,1.66-2.31,2.46-4.16,2.42-5.53,.14-7.52,.74-12.03,1.82-13.53,.34-.47,.71-.75,1.13-.82,.41-.07,.7-.22,.87-.46,.17-.24,.09-.48-.25-.72-.88-.63-2.17-.57-3.84,.18-1.68,.76-3.32,2.26-4.93,4.5-1.61,2.24-2.89,4.67-3.84,7.29-.23,.76-1.77,3.11-4.59,7.05l-11.06,14.78c-2.19,3.06-3.93,5.83-5.19,8.32-1.27,2.49-2.03,4.85-2.3,7.08-.26,2.23,.06,4.37,.97,6.41,.91,2.04,2.04,3.55,3.4,4.52,.81,.58,1.61,.33,2.39-.75l1.33-2.29c1.95-2.72,6.48-7.46,13.58-14.21,1.01,1.03,2.21,1.58,3.6,1.66,1.39,.07,3.48,.54,6.26,1.4-1.89,.91-3.21,1.46-3.96,1.64-.75,.18-1.31,.14-1.69-.13-.37-.27-1.03,0-1.98,.82-.95,.81-1.89,1.89-2.84,3.21-.95,1.33-1.41,2.54-1.38,3.65,.03,1.1,.46,1.95,1.27,2.53,.82,.59,1.9,.8,3.25,.63,1.35-.16,3.38,.03,6.08,.57,2.7,.54,4.56,1.18,5.58,1.91-1.24,3.03-2.27,5.82-3.07,8.38-.81,2.56-1.32,5.08-1.55,7.54-.22,2.47-.16,5.21,.19,8.25,.35,3.03,.6,4.76,.76,5.18,.16,.42,.44,.78,.85,1.07,1.63,1.17,5.41,.53,11.33-1.91,5.93-2.45,10.96-5.63,15.11-9.56,4.34,4.86,6.68,7.63,7.03,8.29,.09,.17,.32,.38,.69,.65,.37,.27,.95,.4,1.73,.39,.78,0,1.36-.28,1.75-.83,.39-.54,.45-2.32,.2-5.34-.26-3.02-2.12-5.92-5.57-8.71,2.77-2.86,5.26-5.55,7.49-8.07,2.11,1.51,3.96,3.38,5.56,5.61,1.6,2.22,2.99,3.76,4.18,4.62,1.19,.85,2.08,.87,2.66,.05,.49-.68,.65-2.6,.49-5.75-.16-3.15-1.63-5.73-4.42-7.73-.95-.68-2.22-1.43-3.79-2.25,.94-1.18,2.12-2.34,3.51-3.5,1.4-1.16,2.22-1.91,2.46-2.25,1.56-2.18,1.52-5.4-.11-9.65-1.63-4.26-3.33-7.02-5.1-8.29-.68-.49-1.35-.71-2-.66-2.77,.28-6.02,.06-9.73-.64,3.84-3.63,7.17-5.77,10.01-6.42,2.83-.65,7.43-.59,13.79,.16,3.12,.38,4.95,.2,5.49-.55,.54-.75,.91-2.13,1.12-4.14,.21-2.01-.42-3.54-1.88-4.59Zm-50.83,58.94c-.9,.54-1.95,.38-3.14-.47-1.19-.85-2.51-2.75-3.95-5.69-1.45-2.94-1.58-6.82-.39-11.63,2.03,1.05,4.39,2.53,7.08,4.45,2.69,1.93,5.55,4.29,8.59,7.08-4.56,3.63-7.29,5.71-8.19,6.25Zm6.36-26.1c-3.4,3.02-7.73,3.16-12.98,.43,1.75-1.01,3.85-2.13,6.28-3.37,1.24,.27,3.48,1.26,6.69,2.94Zm-.12-6.73c2.29-1.04,4.35-2.19,6.18-3.45,1.3-.09,2.48-.02,3.55,.23,.1,.58-.23,1.4-.99,2.46-.76,1.05-1.96,2.23-3.6,3.52-1.87-1.13-3.58-2.05-5.13-2.75Zm7.49,21.44c-2.98-2.45-5.19-4.18-6.62-5.21,3.15-2.38,5.54-4.06,7.17-5.05l6.12,3.31c-2.32,2.66-4.55,4.98-6.68,6.95Zm10.53-17.71c1.19-1.66,1.84-3.86,1.93-6.57,2.58,0,4.17,.21,4.79,.65,.61,.44,.82,1,.64,1.69-.19,.69-1.11,2.2-2.77,4.51-1.66,2.31-3.09,4.17-4.3,5.57-2.1-1.09-3.58-1.9-4.45-2.42,1.58-.62,2.96-1.76,4.16-3.43Zm13.1-41.97c-.58,.82-2.69,1.81-6.3,2.97-3.62,1.17-6.22,1.49-7.8,.97-1.59-.52-3.09,.21-4.5,2.18-1.51,2.11-2.36,3.94-2.56,5.5-.19,1.56,.03,2.57,.68,3.04,.65,.46,1.27,.71,1.87,.73,2.67,.16,5.31,.71,7.92,1.66-3.88,1.54-8.25,3.97-13.1,7.29-4.85,3.32-10.24,6.46-16.17,9.41-5.3-2.66-9.4-4.63-12.31-5.89l19.61-14.21c7.93-5.75,13.02-9.22,15.28-10.44,2.26-1.21,4.94-2.4,8.05-3.58,3.1-1.17,5.28-1.62,6.52-1.35,1.24,.27,2.07,.56,2.48,.85,.41,.29,.51,.58,.32,.85Z"/>
      <path class="cls-1" d="M279.04,996.7c.92,.66,1.71,1.02,2.38,1.09,4.51,.46,7.31,.94,8.38,1.45,1.07,.51,2.32,.46,3.75-.17,1.43-.62,2.59-1.56,3.49-2.82,.9-1.26,1.44-2.47,1.6-3.64,.17-1.17-.27-3.36-1.31-6.58-1.04-3.22-2.14-6.04-3.28-8.46-1.15-2.42-1.89-3.75-2.23-4-.34-.24-.72-.08-1.13,.5-.41,.58-1.18,2.43-2.28,5.55-1.1,3.12-1.61,5.7-1.52,7.72,.04,.23-.01,.45-.16,.66-.63,.88-2.06,1.51-4.28,1.88-2.22,.37-4.81,.31-7.76-.16-.81-.17-1.28-.15-1.43,.06-.15,.2-.17,.42-.07,.64,.1,.22,.87,1.16,2.31,2.81,1.44,1.65,2.62,2.81,3.54,3.46Z"/>
      <path class="cls-1" d="M449.58,1057.55c-1.73-1.2-3.33-2.09-4.8-2.69-1.47-.6-2.81-1.09-4-1.49,1.01-.94,1.79-2.07,2.32-3.39,1.04-2.56,1.01-5.23-.07-8.02-1.08-2.79-2.95-4.71-5.58-5.78-1.63-.66-2.59-.62-2.89,.12-.3,.74-.35,1.57-.14,2.52,.2,.94,.08,1.98-.38,3.1-.46,1.12-1.55,2.44-3.29,3.95-1.74,1.51-3.43,2.61-5.06,3.3-1.64,.69-2.85,1.62-3.64,2.79-.79,1.17-1.61,2.8-2.46,4.9-1.67,4.11-1.41,6.61,.76,7.49,.7,.28,1.41,.3,2.14,.06,2.41-.83,5.31-1.41,8.7-1.75-5.52,4.72-11.11,6.69-16.77,5.94-.76-1.03-1.64-1.75-2.65-2.16-2.56-1.04-4.72-.51-6.46,1.58l-1.42-.17c7.3-6.88,12.45-13.46,15.45-19.75-9.09,6.16-14.56,8.86-16.43,8.11-.31-.12-.55-.31-.72-.56,3.7-1.12,5.86-2.43,6.47-3.95,.61-1.51,.55-3.64-.19-6.38-.74-2.74-1.99-5.12-3.74-7.14-1.76-2.02-3-3.18-3.74-3.48-.74-.3-1.19-.23-1.36,.19-.17,.43-.12,1.08,.15,1.96,.27,.88,.27,1.67-.01,2.37-.69,1.71-2.46,3.56-5.31,5.57-2.85,2.01-4.74,2.95-5.69,2.84-2.98-.21-5.4,1.96-7.26,6.54-1.01,2.48-1.5,4.7-1.48,6.65,.02,1.95,.48,3.11,1.37,3.47,.89,.36,1.87,.17,2.94-.57,1.07-.74,4.13-1.89,9.19-3.46,.7,1.82,2.73,4.18,6.08,7.07-2.95-.74-4.96-1.08-6.02-1.02-1.07,.07-1.79,.58-2.19,1.55-.39,.97,.77,2.39,3.49,4.26,2.72,1.87,4.8,3.09,6.23,3.68,1.43,.58,3.48,.83,6.14,.73l-2.45,6.05c-5.69-.22-12.43-1.42-20.22-3.59-1.52-1.61-2.97-2.69-4.37-3.26-2.25-.91-3.74-.48-4.46,1.31-.25,.62-.29,1.37-.1,2.26,.64,2.43,.72,4.25,.23,5.45-.49,1.2-2.67,2.91-6.55,5.13-2.01,1.17-3.53,3.04-4.57,5.6-.47,1.16-.81,2.61-1.01,4.33-.2,1.72,.22,2.8,1.27,3.22,1.05,.43,3.19,.19,6.45-.71,3.25-.89,7.21-1.48,11.89-1.75,4.67-.27,9.03-.04,13.06,.69-.36,.67-.6,1.25-.71,1.75-6.28,3.24-13.06,6.15-20.34,8.76-7.29,2.6-13.73,4.48-19.35,5.63-2.47,.53-3.81,1.03-3.99,1.5-.09,.23,.17,.47,.79,.73,3.02,1.23,7.81,1.56,14.36,1.01,6.54-.55,14.95-3.36,25.22-8.41-2.51,4.85-4.86,9.98-7.04,15.37-2.18,5.39-3.38,9.51-3.59,12.36-.21,2.85,.1,4.44,.91,4.77,.81,.33,2.21-.73,4.2-3.17,1.98-2.45,3.89-5.92,5.71-10.42,1.82-4.5,3.96-10,6.42-16.5,1.45,2.21,2.93,5.03,4.44,8.43,1.51,3.41,2.54,6,3.09,7.75,.55,1.76,1.33,2.84,2.34,3.25,1.01,.41,4.06-.5,9.16-2.72,5.1-2.22,8.59-4.44,10.49-6.65,1.89-2.21,3.24-3.43,4.05-3.64,.99-.23,1.88-1.29,2.65-3.2,.77-1.9,.83-3.77,.18-5.62-.65-1.85-1.45-3.61-2.39-5.3-.94-1.69-2.83-3.11-5.66-4.26-2.83-1.15-7-2.52-12.49-4.11-.72-2.01-1.51-3.18-2.36-3.53-.85-.34-2.17,.34-3.95,2.06-.39-.16-1.11-.27-2.17-.33,.55-1.13,1.31-2.9,2.29-5.31,.71,.47,1.75,.98,3.11,1.53,1.36,.55,3.33,.63,5.93,.24,1.23-.13,2.58,.1,4.05,.69,2.17,.88,3.73,.16,4.67-2.17,.25-.62,.47-1.39,.66-2.31,1.88-.41,3.43-.84,4.66-1.3,1.22-.45,2.01-1.11,2.35-1.96,.91-2.25,.18-6.02-2.19-11.32,.42,.08,1.37-.21,2.86-.87,1.49-.66,2.51-1.69,3.08-3.09,.57-1.39,.32-4.25-.73-8.56,1.94-.11,3.61,.11,5.01,.68,1.4,.57,2.68,1.18,3.86,1.83,1.18,.66,2.46,.89,3.86,.68,1.39-.2,2.32-.87,2.77-1.99,.46-1.12,.49-2.1,.11-2.94-.39-.83-1.44-1.85-3.17-3.04Zm-50.68,37.64c-5.28-1.24-11.57-2.2-18.87-2.91,.36-.22,.99-.84,1.91-1.87,.91-1.03,1.55-1.65,1.91-1.87,2,.63,3.95,.79,5.84,.47,1.89-.32,5.82-.17,11.81,.45-.21,.73-1.07,2.64-2.59,5.72Zm12.1,9.24c3.85,.75,6.94,1.59,9.27,2.54,4.26,1.73,5.91,3.8,4.94,6.2-.41,1.01-1.61,2.53-3.61,4.56-2,2.03-3.69,3.2-5.07,3.5-1.39,.3-3.63-.18-6.73-1.44-4.11-1.67-7.18-4.45-9.22-8.34,.5-.79,.85-1.64,1.04-2.56,3.55-1.18,6.68-2.67,9.39-4.46Zm11.31-25.89c-.88,2.17-4.04,3.73-9.49,4.69,2.03-1.89,3.23-3.3,3.61-4.23,.38-.93,.46-1.8,.25-2.61,1.7-.84,3.62-.79,5.76,.17,.17,.7,.12,1.36-.13,1.98Z"/>
      <path class="cls-1" d="M557.71,1134.17c3.56,.53,6.59,2.22,9.08,5.09,2.5,2.87,3.44,6.33,2.84,10.38-.6,4.06-2.56,5.84-5.87,5.35-1.08-.16-2.37-.56-3.88-1.21-6.82-3.12-14.65-5.34-23.51-6.65-8.86-1.31-16.83-1.77-23.91-1.38-7.08,.39-12.96,1.49-17.62,3.29-4.67,1.81-8.28,2.52-10.85,2.14-2.57-.38-4.94-1.94-7.11-4.67-2.18-2.73-3.54-5.24-4.09-7.52-.55-2.28-.76-3.88-.62-4.79,.26-1.74,1.3-2.47,3.12-2.2,.74,.11,1.44,.4,2.09,.88,.65,.48,1.49,.79,2.52,.94,1.03,.15,3.32,.03,6.85-.38,9.13-1.1,18.05-1.62,26.75-1.56,8.7,.06,17.03,.53,24.98,1.41,7.95,.88,12.83,1.2,14.64,.96,1.81-.24,3.34-.27,4.58-.08Zm-50.25-13.78c-3.45,1.6-5.88,2.3-7.29,2.09-.33-.05-.48-.16-.46-.32,.05-.33,1.01-.95,2.88-1.86,1.87-.91,3.59-1.82,5.16-2.73,1.57-.91,3.33-2.04,5.26-3.41,1.94-1.36,2.98-2.14,3.14-2.33,.15-.19,.25-.41,.29-.66,.15-1-.46-2.63-1.81-4.9-1.36-2.27-2.61-4.97-3.75-8.11-1.14-3.13-1.64-5.19-1.5-6.19,.15-.99,.66-1.42,1.52-1.3,.87,.13,1.84,.57,2.91,1.32,.46,.32,1.68,.63,3.67,.92,1.99,.29,5.07,.33,9.25,.1,4.18-.23,6.64-.58,7.39-1.06,1.69-1.1,3.19-1.56,4.52-1.36,1.32,.2,4.08,1.55,8.28,4.08,4.2,2.52,5.93,6.27,5.19,11.24-.27,1.82-.95,3.16-2.05,4.01-1.1,.85-3.51,1-7.24,.45-1.74-.26-4.61,.01-8.62,.82-4.01,.8-8.73,2.11-14.16,3.93-4.97,3.84-9.16,5.58-12.58,5.25Z"/>
      <path class="cls-1" d="M684.57,1136.6c.82,.69,1.76,1.17,2.84,1.45,1.07,.28,3.33,.63,6.77,1.05,3.44,.42,6.27,1.83,8.5,4.24,2.23,2.41,3.44,4.74,3.63,6.99,.09,1-.08,1.92-.52,2.75-.43,.84-1.04,1.29-1.83,1.36-.79,.07-3.12-.11-6.98-.53-3.86-.42-6.48-.86-7.87-1.33-6.05-1.99-12.52-2.69-19.4-2.09-6.88,.6-14.94,2.56-24.18,5.89-9.25,3.33-16.13,6.57-20.64,9.74-1.43,.96-2.69,1.49-3.77,1.59-2.25,.2-4.58-1.41-6.97-4.81-2.4-3.4-3.67-6.02-3.83-7.86-.16-1.83,.72-2.84,2.64-3,.58-.05,1.37,.03,2.35,.23,.98,.21,1.93,.27,2.85,.19,2.17-.19,9.6-2.1,22.31-5.72,2.52-1.98,4.41-4.79,5.69-8.44,1.28-3.64,1.8-6.85,1.55-9.65-.24-2.79-.83-4.74-1.77-5.83-3.49-.54-7.14-2.63-10.95-6.29-3.8-3.66-5.79-6.41-5.95-8.24-.09-1.08,.32-1.67,1.23-1.75,.42-.04,.89,.09,1.42,.38,1.41,.72,3.71,.94,6.92,.66,3.21-.28,6.69-1.32,10.44-3.12,3.75-1.79,6.6-4.04,8.55-6.73,.6-.81,1.69-1.28,3.28-1.42,1.58-.14,4,.07,7.24,.63,3.24,.56,5.78,1.7,7.61,3.43,1.83,1.73,2.83,3.6,3.01,5.6,.08,.92-.1,1.96-.54,3.13-.45,1.17-.89,1.88-1.33,2.13-.44,.25-1.58,.45-3.41,.61-2.59,.22-5.04,.99-7.36,2.28-2.33,1.29-4.08,2.31-5.28,3.04-1.2,.73-1.76,1.46-1.7,2.17,.06,.71,1.14,1.56,3.25,2.55,1.13,.49,1.8,1.88,2,4.17,.2,2.29,.02,4.05-.55,5.28-1.99,4.21-3.51,7.99-4.56,11.36,6.71-1.17,12.43-2.01,17.17-2.51,4.75-.5,7.34-.87,7.78-1.12,.44-.25,.64-.62,.6-1.12-.04-.5-.13-.96-.25-1.37Z"/>
      <path class="cls-1" d="M791.27,1111.65c6.45-3.14,12.86-6.13,19.23-8.99,6.37-2.85,10.15-4.47,11.34-4.87,1.19-.4,2.28-.5,3.27-.31,.99,.2,2.3,.81,3.94,1.86,1.63,1.04,3.12,2.18,4.46,3.4,1.34,1.23,2.17,2.32,2.49,3.27,.32,.95,.34,2,.07,3.16-.27,1.15-1.03,1.94-2.26,2.35-1.23,.41-3.41,.84-6.53,1.27-9.02,1.27-17.62,3.28-25.79,6.02s-13.91,5.03-17.23,6.86c-3.32,1.82-8.21,5.46-14.68,10.9-6.47,5.44-10.54,9.35-12.22,11.72-1.68,2.37-2.91,3.7-3.7,3.96-1.59,.54-4-.15-7.25-2.06-3.25-1.91-5.46-4.61-6.63-8.1-.27-.79-.36-1.51-.26-2.16,.09-.65,.26-1.06,.51-1.23,.25-.17,.97-.46,2.16-.86,1.19-.4,2.69-1.19,4.5-2.37,1.81-1.18,9.4-5.52,22.77-13.02-2.5-2.96-5.61-9.46-9.34-19.51-1.66,2.94-2.89,7.55-3.69,13.83-.31,2.49-1.34,4.03-3.08,4.61-1.75,.59-3.87-.2-6.36-2.36-2.49-2.16-4.29-4.87-5.38-8.12-.4-1.19-.6-2.32-.6-3.37,.07-4-.16-6.77-.68-8.32-.52-1.55-.46-2.43,.17-2.64,.63-.21,1.48,.32,2.52,1.6,1.05,1.28,2.32,2.22,3.8,2.83,1.48,.61,2.58,.79,3.3,.55,.71-.24,1.2-.49,1.47-.76,.98-1.03,2.95-2.93,5.9-5.69-1.17-3.75-2.52-6.44-4.03-8.05-2.68-2.72-4.3-4.91-4.86-6.58-.56-1.67,.09-2.81,1.96-3.44,1.86-.63,4.49-.49,7.88,.4,3.39,.89,6.2,3.74,8.44,8.55,2.16-1.96,3.76-3.38,4.79-4.26-1.98-6.13-3.53-10.05-4.68-11.74-1.14-1.69-2.58-2.49-4.31-2.39-1.74,.1-2.88-.69-3.44-2.35-.35-1.03,.09-2.17,1.3-3.42,1.21-1.25,2.75-2.18,4.62-2.81,1.86-.63,4.24-.98,7.12-1.07,2.89-.09,4.91,.21,6.06,.88,1.15,.67,2.09,2.08,2.81,4.22,.72,2.14,1.63,5.77,2.73,10.87,1.66-1.62,3.37-2.72,5.11-3.31,1.74-.59,3.97-.87,6.67-.85,2.7,.02,5.02,1.01,6.96,2.96,1.94,1.95,3.04,3.33,3.31,4.12,.27,.79,.36,1.45,.26,1.96-.09,.52-.32,1.08-.69,1.69-.37,.61-1.44,2.56-3.2,5.84-1.76,3.29-3.89,6.61-6.38,9.96-2.49,3.36-4.41,5.66-5.76,6.9,.51,2.83,.89,5.66,1.14,8.49Zm-18.93-27.54c-1.19,1.46-2.55,3.2-4.08,5.21,.72,1.88,1.73,4.74,3.02,8.59,1.29,3.85,2.54,7.82,3.74,11.92,1.29-1.14,2.44-2.45,3.44-3.94-2.11-8.65-4.16-15.91-6.13-21.78Zm7.34,26.14c-.85,.37-2.22,.88-4.12,1.52,.93,2.78,1.55,5,1.84,6.66,1.56-.88,2.84-1.53,3.85-1.96-.35-1.56-.87-3.63-1.57-6.23Zm8.04-20.19c2.34-5.64,3.31-9.06,2.91-10.25-.4-1.19-1.32-2.16-2.77-2.91-1.45-.75-2.62-1.15-3.52-1.2,1.39,5.18,2.51,9.97,3.37,14.36Z"/>
      <path class="cls-1" d="M904.48,1036.72c2.39-7.19,5.3-12.86,8.73-17,1.85-2.25,2.82-3.65,2.91-4.21,.09-.55-.15-1.29-.73-2.21-1.2-1.91-2.98-2.97-5.33-3.17-2.35-.2-4.66,.41-6.93,1.84-.71,.45-1.68,1.18-2.91,2.21-1.23,1.03-2.74,2.1-4.51,3.21-1.77,1.12-3.89,1.36-6.36,.74-2.13-6.37-3.53-10.09-4.2-11.15-1.83-2.9-4.77-4.07-8.81-3.5-4.04,.57-6.95,1.41-8.72,2.53-2.41,1.52-2.94,3.34-1.61,5.46,1.16,1.84,4.75,3.93,10.78,6.27,4.02,9.84,6.88,17.53,8.59,23.07-3.85,10.54-8.68,17.78-14.5,21.74-.78,.49-.92,1.13-.43,1.9,.49,.78,2.58,1.86,6.27,3.25,3.69,1.38,9.01,.92,15.97-1.38,1.38,4.87,2.06,8.84,2.02,11.93-.03,3.09-.88,6.34-2.54,9.76-1.66,3.42-2.77,5.3-3.33,5.66-.57,.36-1.03,.25-1.38-.31-.36-.57-.62-1.1-.78-1.59-.16-.49-.4-.99-.71-1.48-.31-.49-.81-.53-1.48-.11-.67,.42-1.17,2.02-1.5,4.8-.33,2.78-.2,4.63,.38,5.55,.98,1.56,3.28,1.2,6.89-1.08,8.99-5.66,14.27-10.72,15.83-15.16,1.55-4.44,0-13.35-4.67-26.73-.36-6.7,.66-13.64,3.05-20.84Zm-32.48-23.54c-.4-.64-.42-1.07-.07-1.29,.71-.44,1.69,.42,2.96,2.59-1.53-.23-2.49-.66-2.89-1.29Zm20.13,13.59c-.67-2.15-1.28-3.99-1.84-5.52,1.54-.38,3.14-.35,4.8,.09-1.55,2.56-2.54,4.37-2.96,5.43Z"/>
      <path class="cls-1" d="M950.42,1049.47c-2.21-1.23-4.99-1.83-8.33-1.8-3.35,.03-7.88,.84-13.61,2.42-5.73,1.58-9.51,2.95-11.36,4.11-2.27,1.43-4.85,3.33-7.76,5.7-2.91,2.38-4.27,3.71-4.09,3.99,.13,.21,.65,.09,1.54-.38,3.81-1.8,6.5-2.88,8.06-3.22,1.56-.34,3.49-.34,5.78,0,6.08,1.02,12.07,1.7,17.97,2.03,5.9,.34,10.22,.44,12.95,.3,2.73-.14,4.45-.43,5.16-.88,1.7-1.07,1.62-3.08-.22-6.01-1.85-2.94-3.88-5.02-6.09-6.25Z"/>
      <path class="cls-1" d="M1025.84,970.24c2.1-2.15,3.35-4.21,3.74-6.17,.39-1.96-.16-3.67-1.66-5.13-1.5-1.46-3.92-2.01-7.26-1.65-3.34,.37-6.38,1.96-9.13,4.77-.59,.6-1.14,1.23-1.66,1.88-.77,.19-1.33,.11-1.69-.25-.78-.76-.97-4.4-.58-10.91,.1-1.77-.69-3.48-2.37-5.12-.78-.76-1.68-1.4-2.69-1.92,.88-.66,1.8-1.49,2.77-2.47,.96-.99,1.59-2.46,1.86-4.42,.16-1.13,.61-2.45,1.33-3.97,.72-1.52,1.46-2.67,2.22-3.45l1.32-1.17c.82-.84,1.19-1.79,1.12-2.85-.07-1.06-.56-2.04-1.46-2.91-2.09-2.05-5.45-2.8-10.06-2.28-4.61,.53-8.79,2.71-12.53,6.54-1.81,1.86-3.77,4.28-5.86,7.26-1.32-6.08-2.4-12.4-3.24-18.96-.2-1.6-1.01-3.1-2.45-4.5-2.33-2.28-5.37-3.42-9.1-3.44-3.73-.01-6.73,1.14-9.01,3.48-3.45,3.54-4.35,9.91-2.7,19.12-3.84,.7-6.06,1.36-6.68,1.99-.61,.63-.41,1.44,.61,2.43,1.74,1.7,4.72,3.79,8.95,6.29,4.23,2.5,9,2.82,14.3,.98-1.06,5.52-2.27,10.24-3.65,14.16-2.5-1.27-5.63-3.1-9.39-5.48-3.76-2.38-6.1-4.03-7.03-4.93-.93-.91-1.51-1.45-1.75-1.62-.24-.17-.48-.14-.71,.1-.23,.24-.28,1.34-.14,3.29,.14,1.95,0,3.14-.4,3.55-.41,.42-1.06,.55-1.95,.38-.89-.17-1.48-.1-1.77,.2-.29,.3,.04,1.24,1.01,2.83,.96,1.59,2.05,2.96,3.24,4.13,3.95,3.86,8.48,6.29,13.58,7.3-.82,.6-1.58,1.26-2.29,1.98-2.16,2.21-3.41,4.75-3.73,7.59-.32,2.84,.41,5.81,2.19,8.9,1.78,3.09,2.89,5.25,3.32,6.49,.43,1.24,.62,2.51,.58,3.81-.04,1.3,.44,2.45,1.46,3.45,2.33,2.28,5.42,4.15,9.26,5.62,3.83,1.46,6.19,1.75,7.07,.85,.7-.72,.3-2.04-1.2-3.98-4.93-6.57-8-12.17-9.21-16.8-1.21-4.63-.35-9.7,2.57-15.21,2.92-5.51,5.16-10.05,6.72-13.62,1.56-3.57,2.8-6.91,3.74-10.03,.94-3.12,2.16-6.1,3.67-8.96,1.5-2.86,2.87-4.92,4.1-6.17,1.23-1.26,2.08-1.65,2.56-1.19,.48,.47,.82,1.56,1.02,3.27,.2,1.72-.24,4.92-1.31,9.6-1.07,4.69-2.92,9.49-5.55,14.4-2.63,4.92-4.86,8.48-6.66,10.69-.7,.84-1.05,1.64-1.04,2.41,0,.77,.39,1.88,1.15,3.32,.76,1.44,1.57,2.59,2.44,3.43,.87,.85,1.88,1.28,3.03,1.3,1.15,.02,2.23-.49,3.22-1.5,.99-1.02,1.54-2.59,1.63-4.72,.09-2.13,.48-4.27,1.17-6.41,.68-2.14,1.32-3.51,1.91-4.11,.58-.6,1.03-.75,1.33-.46,.3,.29,.49,1,.56,2.12,.07,1.12-.12,2.16-.58,3.11-.46,.95-.3,2.37,.49,4.25,.79,1.89,1.7,3.32,2.71,4.32,1.02,1,1.88,1.61,2.6,1.83-4.41,7.16-6.77,13.04-7.07,17.66-.3,4.62,.54,7.89,2.51,9.83,.78,.76,2.18,1.37,4.19,1.81,2.02,.45,4.61,.73,7.78,.84,3.17,.11,6.36-.08,9.58-.56,3.22-.48,6.11-1.2,8.67-2.15,2.56-.95,4.49-2.08,5.77-3.4,2.92-2.99,3.71-6.82,2.35-11.48-1.36-4.66-5.31-11.06-11.86-19.21Zm-57.1-35.05c-1.35-1.32-3.75-2.9-7.21-4.75-2.88-3.16-4.42-6.07-4.63-8.73-.21-2.66,.59-4.92,2.41-6.78,.82-.84,1.87-1.19,3.14-1.06,1.27,.13,2.53,.8,3.75,2,1.23,1.2,2.25,2.81,3.08,4.85,.82,2.03,1.76,5.29,2.82,9.77,1.06,4.49,1.63,8.12,1.73,10.9-2.05-2.81-3.74-4.88-5.09-6.2Zm-2.14,48.1c-1.01-.4-1.85-.92-2.5-1.57-1.8-1.75-2.42-4.03-1.86-6.81,.56-2.79,1.55-4.91,2.99-6.38,1.43-1.46,3.1-1.74,5-.81-2.18,5.83-3.39,11.02-3.63,15.58Zm58.87,12.13c-2.14,2.19-5.69,4.42-10.66,6.7-4.97,2.28-8.48,2.42-10.52,.43-1.14-1.11-1.81-2.85-2.01-5.21-.21-2.36,.68-4.56,2.67-6.6l1.93-1.8c2.22-2.28,4.79-7.54,7.71-15.8,1.13,.52,2.05,1.07,2.77,1.65,.19,1.24,.15,2.28-.14,3.11-.29,.83-.37,1.31-.25,1.42,.36,.35,1.42-.43,3.17-2.35,3.9,4.16,6.29,7.72,7.18,10.7,.89,2.98,.27,5.56-1.86,7.75Z"/>
    </g>
  </g>
  <g id="_图层_2" data-name="图层 2">
    <g>
      <path class="cls-4" d="M62.4,653.84l2.67,16.89c-8.25,1.61-11.69,6.71-10.34,15.3,1.96,8.5,6.22,12.38,12.78,11.65,5.33-.84,8.36-5.72,9.07-14.65,.16-.94,.19-1.7,.09-2.29-.05-.29-.01-1.06,.09-2.29,.81-19.87,6.86-30.54,18.17-32.03,17.24-2.42,27.97,7.88,32.22,30.89,3.38,21.33-3.99,33.29-22.12,35.85l-2.81-17.78c9.49-1.5,13.8-6.89,12.93-16.17-1.98-10.62-6.4-15.54-13.27-14.76-5.63,.89-8.66,6.69-9.09,17.38-.06,1.53-.19,2.61-.4,3.25-1.29,18.73-7.41,28.96-18.38,30.7-17.03,1.78-27.87-8.19-32.53-29.93-1.92-17.92,5.04-28.59,20.9-32.01Z"/>
      <path class="cls-4" d="M120.2,615.54l.28,17.1-83.24,1.35-.28-17.1,32.4-.53v-.45c-5.76-3.21-8.7-9.01-8.84-17.41,1.03-10.52,5.13-16.88,12.29-19.1,3.59-.96,6.58-1.46,8.98-1.5l37.79-.61,.28,17.55-34.65,.56c-9,.15-13.44,3.67-13.33,10.57,.7,5.99,5.26,9.37,13.67,10.13l34.65-.56Z"/>
      <path class="cls-4" d="M81.49,543.8l-2.02,16.53c-6.51-1.09-10.95-4.36-13.31-9.79-1.91-4.16-2.41-9.96-1.5-17.41,1.97-16.08,10.09-23.25,24.39-21.5l31.27,3.82c.6,.07,1.21,0,1.84-.23,1.23-.15,2.73-.12,4.52,.1l-1.86,15.19c-2.75,.27-5.32,.26-7.7-.03,5.52,4.3,7.61,10.61,6.3,18.9-2.09,12.14-8.36,17.72-18.82,16.74-8.56-1.65-14.16-6.56-16.79-14.75-1.42-5.61-1.56-13.18-.4-22.72l-5.36-.66c-4.54,.05-7.25,2.44-8.13,7.17-.25,4.5,2.27,7.38,7.56,8.63Zm16.2-13.89c-2.39,12.1-.15,18.57,6.7,19.41,5.1,.33,8.13-2.18,9.08-7.5,.84-6.85-4.42-10.81-15.77-11.9Z"/>
      <path class="cls-4" d="M76.87,472.89l6.53,1.71,.55-.32c-4.67-4.63-5.95-11.02-3.82-19.14,3.82-9.85,9.48-14.88,16.98-15.09,3.71,.04,6.73,.37,9.05,.98l36.56,9.58-4.45,16.98-33.52-8.78c-8.71-2.28-13.93-.08-15.68,6.59-.94,5.96,2.54,10.44,10.44,13.43l33.52,8.78-4.33,16.54-56.15-14.72,4.34-16.54Z"/>
      <path class="cls-4" d="M114.74,365.21l48.54,20.39c17.38,6.65,22.15,18.91,14.33,36.77-6.86,16.32-16.15,22.18-27.88,17.57l6.27-14.94c4.65,1.31,8.15-.8,10.47-6.34,3.72-8.85-.72-14.95-13.31-18.28,3.43,5.02,3.68,10.99,.78,17.9-6.52,13.21-18.45,16.82-35.79,10.83-16.68-8.31-22.54-19.55-17.55-33.73,3.02-7.19,7.54-10.99,13.57-11.38l-6.22-2.61,6.8-16.18Zm10.62,47.9c10.51,4.42,17.22,3.17,20.12-3.75,2.9-6.91-.89-12.58-11.41-17-11.34-4.76-18.46-3.69-21.37,3.23-2.91,6.92,1.31,12.75,12.65,17.52Z"/>
      <path class="cls-4" d="M182.37,362.61l-8.77,14.68-71.46-42.71,8.77-14.68,27.81,16.62,.23-.39c-3.2-5.75-2.65-12.24,1.66-19.45,6.42-8.39,13.25-11.65,20.51-9.76,3.55,1.07,6.36,2.23,8.42,3.46l32.45,19.39-9,15.06-29.74-17.78c-7.73-4.62-13.36-3.96-16.9,1.96-2.56,5.46-.47,10.73,6.28,15.81l29.74,17.78Z"/>
      <path class="cls-4" d="M186.89,281.36l-10.37,13.02c-4.98-4.34-7.05-9.44-6.22-15.31,.55-4.54,3.16-9.75,7.84-15.62,10.09-12.67,20.77-14.52,32.03-5.55l24.64,19.62c.47,.38,1.03,.63,1.69,.77,1.12,.52,2.39,1.33,3.8,2.45l-9.53,11.97c-2.49-1.21-4.66-2.56-6.54-4.06,2.45,6.56,.94,13.02-4.53,19.41-8.14,9.25-16.4,10.72-24.8,4.41-6.43-5.89-8.63-13-6.58-21.35,1.73-5.53,5.57-12.05,11.55-19.56l-4.22-3.36c-3.9-2.33-7.45-1.71-10.68,1.85-2.57,3.71-1.93,7.48,1.92,11.31Zm21.08-3.35c-8.37,9.06-9.85,15.74-4.45,20.04,4.18,2.95,8.07,2.4,11.66-1.64,4.3-5.4,1.9-11.52-7.21-18.4Z"/>
      <path class="cls-4" d="M188.38,215.03l12.82-13.27,10.68,10.32-12.82,13.27-10.68-10.32Zm18.44,17.18l12.19-12.62,41.76,40.32-12.19,12.62-41.76-40.32Z"/>
      <path class="cls-4" d="M306.59,219.58l-14.1,10.45-49.56-66.89,20.61-15.27c18.14-13.81,32.27-13.63,42.39,.52,9.16,13.38,6.54,25.96-7.87,37.75l-10.49,7.77,19.02,25.67Zm-41.25-55.68l13.93,18.8c.96-.71,2.41-1.78,4.34-3.21,10.35-6.17,12.73-12.79,7.14-19.85-4.82-6.51-11.84-6.16-21.07,1.05-1.93,1.43-3.38,2.5-4.34,3.21Z"/>
      <path class="cls-4" d="M384.13,137.77c8.37,17.31,4.25,30.8-12.33,40.49-17.17,8.63-30.72,4.73-40.67-11.72-8.51-17.57-4.55-31.33,11.9-41.28,17.3-8.37,31-4.19,41.1,12.51Zm-37.18,20.18c6.01,11.07,12.58,14.68,19.69,10.82,7.38-4,8.07-11.55,2.06-22.62-5.89-11.47-12.66-15.15-20.3-11-7.12,3.86-7.6,11.47-1.45,22.8Z"/>
      <path class="cls-4" d="M375.48,82.84l16.2-6.75,32.01,76.85-16.2,6.75-32.01-76.85Z"/>
      <path class="cls-4" d="M454.43,123.24l.71-42.12,16.35-5.02-4.7,84.3-16.35,5.02,.67-22.33-38.12-49.02,17.64-5.42,23.81,34.58Z"/>
      <path class="cls-4" d="M476.57,75.33l11.49-2.2-2.11-11.05,16.06-9.48,3.29,17.24,12.38-2.37,2.2,11.49-12.38,2.37,5.07,26.52c.76,7.19,3.56,9.86,8.4,8.01,2.06-.39,3.95-.91,5.66-1.54l1.94,10.17c-4.66,1.19-9.17,2.36-13.53,3.5-11.09,2.73-17.58-2.44-19.46-15.52l-5.32-27.85-11.49,2.2-2.2-11.49Z"/>
      <path class="cls-4" d="M587.68,94.65l-38.13,3.07c.49,9.89,4.17,14.41,11.02,13.56,5.7-.16,9.1-2.84,10.19-8.04l15.7-1.26c-.54,12.08-8.87,18.77-25.02,20.07-18.52,1.79-28.43-7.34-29.75-27.4-.67-19.51,7.63-30.41,24.9-32.71,11.96-.96,20.55,2.86,25.75,11.47,2.06,3.15,3.38,6.5,3.97,10.06,.58,3.56,1.04,7.29,1.35,11.18Zm-39.07-8.59l20.18-1.63c-.65-8.07-4.42-11.83-11.29-11.28-6.28,.51-9.25,4.81-8.89,12.91Z"/>
      <path class="cls-4" d="M647.26,83.72l-17.09-.67c-.32-7.22-3.17-10.93-8.57-11.15-4.2-.17-6.96,5.28-8.3,16.34-.04,.9-.06,1.5-.07,1.8-.01,.3-.04,.9-.07,1.8,.12,12.02,2.59,18.12,7.38,18.31,5.4,.21,8.39-3.42,8.99-10.9l17.09,.67c-1.48,14.66-10.31,21.66-26.5,21.02-16.16-1.24-24.47-11.47-24.91-30.71,2.25-19.12,11.35-28.97,27.29-29.55,16.46,1.25,24.71,8.93,24.76,23.04Z"/>
      <path class="cls-4" d="M670.07,124.58l-16.86-2.84,13.82-82.09,16.86,2.84-5.38,31.95,.44,.07c4.2-5.07,10.44-6.91,18.73-5.52,10.15,2.93,15.67,8.11,16.55,15.56,.29,3.7,.24,6.73-.16,9.1l-6.28,37.28-17.31-2.91,5.75-34.17c1.49-8.88-1.16-13.89-7.96-15.03-6.02-.4-10.17,3.46-12.45,11.59l-5.75,34.17Z"/>
      <path class="cls-4" d="M753.47,83.68l-2.05,6.43,.29,.57c4.87-4.43,11.31-5.37,19.32-2.82,9.64,4.33,14.37,10.24,14.19,17.74-.23,3.7-.72,6.7-1.44,8.99l-11.46,36.02-16.72-5.32,10.51-33.02c2.73-8.58,.8-13.91-5.77-16-5.91-1.24-10.55,2-13.96,9.73l-10.51,33.02-16.29-5.19,17.6-55.32,16.29,5.19Z"/>
      <path class="cls-4" d="M806.77,102.67l16.09,7.01-23.2,53.21-16.09-7.01,23.2-53.21Zm9.66-23.28l16.91,7.37-5.93,13.61-16.91-7.37,5.93-13.61Z"/>
      <path class="cls-4" d="M871.42,158.3l-15-8.21c2.93-6.61,2.03-11.2-2.71-13.8-3.69-2.02-8.59,1.63-14.71,10.93-.43,.79-.72,1.32-.86,1.58-.15,.27-.43,.79-.87,1.58-5.24,10.81-5.75,17.37-1.54,19.68,4.74,2.59,9.03,.67,12.9-5.76l15,8.21c-7.85,12.46-18.88,14.8-33.09,7.02-13.92-8.31-16.8-21.17-8.63-38.59,10.53-16.12,23.06-20.89,37.59-14.31,14.18,8.45,18.15,19,11.91,31.66Z"/>
      <path class="cls-4" d="M981.5,184.83l13.63,11.76-34.09,39.53c-14.2,15.09-30.24,15.31-48.13,.68-17.55-15.94-19.8-31.93-6.74-48l34.09-39.53,13.63,11.76-29.68,34.42c-12.86,13.08-13.99,23.8-3.37,32.16,9.6,9.08,19.92,6.29,30.97-8.35l29.68-34.42Z"/>
      <path class="cls-4" d="M1004.94,245.17l-5.16,4.35-.05,.63c6.48-1.15,12.43,1.49,17.85,7.91,5.84,8.8,6.7,16.32,2.54,22.57-2.17,3.01-4.18,5.29-6.01,6.83l-28.91,24.36-11.31-13.42,26.5-22.33c6.88-5.8,8.1-11.34,3.65-16.61-4.33-4.2-9.99-3.94-16.99,.78l-26.5,22.33-11.02-13.08,44.39-37.41,11.02,13.08Z"/>
      <path class="cls-4" d="M1039.88,289.57l9.89,14.5-47.96,32.7-9.89-14.5,47.96-32.7Zm20.57-14.57l10.39,15.24-12.27,8.37-10.39-15.24,12.27-8.37Z"/>
      <path class="cls-4" d="M1016.6,360.86l40.47-46.89,8.89,16.17-28.42,30.51,41.21-7.24,7.8,14.2-60.84,9.82-9.1-16.56Z"/>
      <path class="cls-4" d="M1080.1,442.18l-13.98-35.6c-9.33,3.34-12.59,8.16-9.79,14.48,1.8,5.41,5.35,7.89,10.65,7.42l5.76,14.66c-11.72,2.99-20.54-3.06-26.46-18.13-7.07-17.21-1.21-29.34,17.61-36.41,18.48-6.29,31.32-1.5,38.52,14.37,4.38,11.17,3.21,20.49-3.52,27.97-2.42,2.88-5.24,5.12-8.48,6.71-3.24,1.59-6.68,3.11-10.31,4.53Zm-3.09-39.88l7.4,18.85c7.54-2.96,10.05-7.65,7.53-14.07-2.3-5.86-7.28-7.46-14.93-4.77Z"/>
      <path class="cls-4" d="M1115.15,443.04l4.12,15.2-10.42,2.83,.12,.43c8.68,1.06,14.03,6.45,16.04,16.16l-14.77,4.01-2-7.38c-1.97-3.82-4.02-6.22-6.15-7.19-2.26-.32-5.21-.3-8.84,.07-.87,.24-1.45,.39-1.74,.47l-27.8,7.54-4.48-16.5,44.73-12.13c.58-.16,1.88-.51,3.91-1.06,3.1-1.15,5.53-1.97,7.27-2.44Z"/>
      <path class="cls-4" d="M1119.21,537.83l-2.54-15.54c3.5-.88,5.01-3.71,4.54-8.49-.73-4.44-2.87-6.37-6.42-5.79-2.37,.39-3.84,4.42-4.4,12.12-1.53,14.84-6.73,22.99-15.61,24.44-10.8,.85-18.13-6.77-21.98-22.85-2.37-16.33,2.02-25.72,13.18-28.15l2.61,15.99c-4.05,1.27-5.77,4.74-5.14,10.42,.87,5.33,3.38,7.66,7.52,6.98,3.21-.83,4.94-5.07,5.22-12.71,.29-14.95,5.37-22.92,15.24-23.92,10.16-1.06,17.12,6.16,20.87,21.67,2.37,14.5-2,23.13-13.1,25.85Z"/>
      <path class="cls-4" d="M1135.98,551.29l1.27,17.5-57.9,4.22-1.27-17.5,57.9-4.22Zm25.1-2.28l1.34,18.4-14.81,1.08-1.34-18.4,14.81-1.08Z"/>
      <path class="cls-4" d="M1138.4,579.38l-.19,11.7,11.25,.18,6.01,17.65-17.55-.28-.2,12.6-11.7-.19,.21-12.6-27-.44c-7.19-.72-10.38,1.48-9.56,6.6-.03,2.09,.08,4.05,.35,5.86l-10.35-.17c-.22-4.81-.44-9.46-.67-13.96-.41-11.41,5.97-16.71,19.16-15.89l28.35,.46,.19-11.7,11.7,.19Z"/>
      <path class="cls-4" d="M1094.86,655.86l38.37,17.38-1.88,17-75.5-37.78,1.88-17,20.23,9.48,60.12-15.53-2.03,18.34-41.19,8.12Z"/>
    </g>
  </g>
</svg>