<?xml version="1.0" encoding="UTF-8"?>
<svg id="_图层_1" data-name="图层 1" xmlns="http://www.w3.org/2000/svg" viewBox="0 0 251.11 30.51">
  <defs>
    <style>
      .cls-1 {
        fill: #dcdddd;
      }

      .cls-2 {
        fill: #fff;
        stroke: #e60012;
        stroke-miterlimit: 10;
        stroke-width: .5px;
      }
    </style>
  </defs>
  <g>
    <path class="cls-1" d="M22.63,21.48c.77,.65,1.92,1.36,3.43,2.13,1.52,.77,2.67,1.27,3.45,1.47,.78,.21,1.37,.46,1.76,.75,.39,.29,.58,.69,.58,1.19,0,.19-.1,.32-.3,.39-.2,.07-.81,.11-1.83,.11s-1.97-.07-2.82-.2c-.86-.14-1.65-.45-2.37-.94-.72-.49-1.69-1.42-2.9-2.77-.27,.42-.77,.74-1.5,.96-.73,.22-1.56,.33-2.48,.33s-1.65-.11-2.19-.35c-.21,1.46-.5,2.64-.86,3.53-.37,.89-.66,1.33-.89,1.33-.13,0-.3-.19-.53-.58-.23-.39-.51-.69-.83-.89-.32-.21-.88-.71-1.68-1.5-.79-.79-1.29-1.36-1.47-1.69-.42-.27-.63-.53-.63-.77s.39-.62,1.16-1.13c.77-.51,1.77-1.1,2.98-1.77-.52-.21-.78-.65-.78-1.32,0-.33,.07-.62,.2-.86,.14-.24,.3-.38,.49-.42,.86-.15,1.36-.85,1.5-2.1-1.07,1.07-2.15,1.76-3.26,2.07-1.19,1.74-2.29,3.28-3.29,4.64-1,1.36-1.69,2.24-2.07,2.63-.38,.4-.66,.6-.85,.6s-.28-.21-.28-.63c0-.79,.19-1.65,.58-2.57,.39-.92,.84-1.69,1.36-2.3,.52-.62,1.49-1.6,2.92-2.96l1.66-1.57c.36-.35,.67-.74,.96-1.14s.43-.73,.45-.96c-1.44,.61-2.53,1.19-3.26,1.76-.61,.46-1.6,1.06-2.99,1.8-1.39,.74-2.23,1.11-2.52,1.11s-.58-.3-.85-.89c-.27-.6-.41-1.03-.41-1.3s.09-.41,.27-.41,.36,.08,.55,.25c.06,.06,.18,.09,.35,.09s.37-.1,.61-.3c.24-.2,.77-.51,1.6-.94,.83-.43,1.62-.78,2.37-1.05,1.92-.67,3.17-1.57,3.73-2.7-1.23-.48-2.07-1.08-2.51-1.8s-.66-1.18-.66-1.36,.18-.28,.53-.27c.35,.01,.56,.02,.63,.02,.46,0,.96-.1,1.49-.31,.53-.21,.95-.47,1.24-.78,.1-.52,.16-1.02,.16-1.5s-.21-.97-.63-1.47c-.13-.17-.19-.32-.19-.47,0-.38,.29-.56,.88-.56s1.29,.27,2.12,.82c.83,.54,1.24,1.1,1.24,1.66,0,.17-.04,.33-.13,.5,.56,.04,.93,.14,1.1,.3,.17,.16,.25,.44,.25,.86s-.05,.72-.14,.89c-.09,.18-.4,.48-.92,.89-.19,.15-.53,.53-1.02,1.16-.49,.63-.74,1.01-.74,1.16s.02,.28,.06,.41c.52-.75,1.47-1.87,2.85-3.36,.35-.35,.53-.68,.53-.97s.13-.44,.38-.44,.6,.16,1.04,.49,.66,.68,.66,1.07-.21,.7-.63,.93c-.94,.5-1.61,1.03-2.01,1.6,.9,.13,1.46,.23,1.69,.3,.23,.07,.34,.18,.34,.33,0,.61-.55,.95-1.66,1.02s-1.86,.17-2.26,.3-.78,.42-1.14,.88c-.37,.46-.57,.84-.61,1.13,.4-.13,.74-.36,1.03-.69,.21-.23,.43-.34,.66-.34s.52,.13,.88,.39c.36,.26,.53,.63,.53,1.11,0,.25-.09,.62-.28,1.11-.19,.49-.3,.9-.34,1.24,.61-.15,1.08-.46,1.41-.94,.06-.4,.35-.61,.88-.63,.54-.86,1.22-2.39,2.02-4.59,.8-2.21,1.21-3.6,1.21-4.19,0-.25-.04-.38-.12-.38s-.17,.02-.25,.06c-.08,.04-.17,.06-.27,.06s-.14-.23-.14-.69c0-.94,.05-1.53,.14-1.76s.31-.35,.64-.35c.44,0,.85,.38,1.22,1.13,.38,.75,.56,1.41,.56,1.98s-.06,1.02-.17,1.36c-.12,.34-.33,.8-.64,1.36-.69,1.21-1.27,2.57-1.72,4.08,1.17-.88,2.1-1.53,2.78-1.94,.68-.42,1.2-.63,1.57-.63s.77,.19,1.21,.58c.44,.39,.66,.7,.66,.93s-.18,.38-.53,.45c-.36,.07-.91,.26-1.68,.56-.76,.3-1.43,.61-1.99,.93,0,.1,.04,.21,.13,.33,.08,.12,.22,.2,.41,.25s.28,.2,.28,.44-.05,.54-.16,.89c-.61,2.15-.92,3.61-.94,4.36Zm-14.05-1.91c-.61,.08-1.29,.6-2.05,1.54-.76,.94-1.14,1.72-1.14,2.35,0,.15,.02,.28,.06,.41,1.09-1.59,2.13-3.02,3.14-4.3Zm5.3,2.92c-.73,.79-1.35,1.4-1.85,1.8-.5,.41-.95,.61-1.33,.61s-.8-.05-1.24-.16c.33,.46,.83,.92,1.49,1.38,.66,.46,1.28,.69,1.87,.69,.23,0,.4-.11,.52-.33,.11-.22,.23-.76,.36-1.61,.13-.86,.19-1.65,.19-2.38Zm6.27-.66c-.59-1.02-2.04-1.7-4.36-2.04-.19,.38-.28,.83-.28,1.35l.06,1.88c0,.36-.01,.66-.03,.91,2.07,.04,3.61-.66,4.61-2.1Zm1.41-5.8c-.79,.61-1.33,.98-1.62,1.11-.28,.14-.61,.2-.99,.2-.77,0-1.21-.14-1.32-.41-.15,.52-.45,1.08-.91,1.66,1.5,.06,2.93,.64,4.26,1.73,.54-2.01,.82-3.19,.82-3.56s-.08-.61-.25-.74Z"/>
    <path class="cls-1" d="M51.14,9.59c.9-.15,1.67-.22,2.32-.22,1.34,0,2.46,.37,3.36,1.1,.9,.73,1.35,1.46,1.35,2.2,0,.31-.09,.57-.27,.77-.18,.2-.41,.3-.71,.3l-.44-.03c-.27,0-.61,.07-1,.2-.4,.14-.71,.29-.94,.46-.4,.29-.77,.44-1.11,.44s-.65-.02-.92-.06c.08,.27,.12,.54,.12,.82,0,.59-.17,1.02-.5,1.32-1.23,1.07-1.85,1.74-1.85,2.01,0,.13,.08,.24,.25,.35,.21-.02,.42-.03,.63-.03,.98,0,1.8,.27,2.45,.8,.65,.53,.97,1.06,.97,1.58s-.21,.92-.63,1.19c-.42,.27-1,.41-1.76,.41-.31,2.59-.77,4.42-1.36,5.47s-1.42,1.58-2.46,1.58c-.46,0-1-.15-1.61-.44-.62-.29-1.25-.68-1.9-1.18-.65-.49-1.24-1.03-1.77-1.61-.53-.59-.94-1.1-1.21-1.54-.27-.44-.41-.79-.41-1.07,0-.69,.44-1.41,1.32-2.16s2.34-1.36,4.39-1.82c-.08-.17-.13-.43-.13-.78s.1-.77,.3-1.24,.42-.75,.67-.83c.25-.08,.47-.23,.66-.44,.19-.21,.28-.37,.28-.47s-.1-.16-.31-.16-.56,.13-1.07,.38c-.5,.25-.95,.55-1.35,.91s-.77,.53-1.13,.53-.63-.1-.83-.31c-.2-.21-.3-.46-.3-.77s.06-.65,.19-1.03,.26-.65,.39-.78c.14-.14,.34-.21,.61-.24,.71-.06,1.73-.29,3.07-.67,1.34-.39,2.52-.89,3.54-1.52,1.02-.63,1.67-1.11,1.94-1.44,.27-.33,.41-.58,.41-.75s-.22-.25-.66-.25-1.05,.11-1.82,.34c-.77,.23-1.52,.53-2.24,.91-.72,.38-1.54,.74-2.45,1.08-.91,.34-2.11,.74-3.61,1.18s-2.55,1.17-3.17,2.2c-.62,1.02-1.08,2.55-1.4,4.58-.08,.61-.25,.91-.5,.91-.31,0-.67-.47-1.08-1.41-.41-.94-.61-1.82-.61-2.63,0-.35,.12-.64,.36-.86,.24-.22,.43-.48,.58-.77,.15-.29,.34-.87,.58-1.73,.24-.86,.64-1.5,1.21-1.94s1.23-.66,2.01-.66c.25,0,.5,.02,.75,.06-.71-1.09-1.07-2.32-1.07-3.7,0-.42,.06-.85,.17-1.3,.11-.45,.22-.67,.33-.67s.22,.09,.35,.28c.12,.19,.26,.28,.41,.28s.38-.18,.71-.55c.32-.37,.53-.55,.61-.55s.13,.04,.14,.11c.01,.07,.02,.27,.02,.6s.11,1.03,.34,2.12,.45,1.96,.66,2.63c.94-.44,2-1.04,3.17-1.82-1.25-.63-2.03-1.54-2.32-2.73-.29-1.19-.44-2.09-.44-2.7,0-.36,.11-.53,.33-.53s.73,.28,1.52,.85c1.36-1.9,2.65-2.85,3.89-2.85,.82,0,1.55,.33,2.2,1,.65,.67,.97,1.41,.97,2.23,0,.5-.13,.91-.38,1.22-1.02,1.3-1.97,2.59-2.82,3.89Zm-7.93,3.2c-.17-.5-.51-.75-1.02-.75s-1.07,.19-1.66,.58c-.6,.39-.89,.89-.89,1.52,0,.23,.05,.47,.16,.72,.86-.75,2-1.44,3.42-2.07Zm7.06,10.54c-.65,.02-.97-.03-.97-.16,0-.04,.1-.11,.3-.2,.2-.09,.39-.27,.58-.52-.02-.23-.08-.49-.19-.78-1.99,.92-3.38,1.38-4.17,1.38l-.66-.03c-.71,0-1.26,.22-1.65,.67-.39,.45-.58,.87-.58,1.27,0,.71,.64,1.31,1.91,1.8,1.27,.49,2.29,.74,3.06,.74s1.33-.34,1.71-1.02c.38-.68,.6-1.73,.66-3.15Zm-1.72-14.49c.48-.5,1.03-1.24,1.65-2.21s1.04-1.71,1.25-2.21c.22-.5,.33-.97,.33-1.4s-.1-.77-.3-1.02c-.2-.25-.44-.38-.74-.38-.65,0-1.19,.25-1.63,.75-.44,.5-.69,1.29-.75,2.35,.27,.94,.41,1.65,.41,2.12s-.07,1.13-.22,1.99Z"/>
    <path class="cls-1" d="M81.21,11.79c1-.17,2.09-.25,3.26-.25,2.49,0,4.19,.4,5.11,1.21,.92,.81,1.38,1.5,1.38,2.09,0,.29-.11,.53-.33,.71-.22,.18-.47,.27-.75,.27s-.54-.02-.77-.06c-.63-.15-1.46-.22-2.49-.22s-1.7,.01-1.99,.03c.27,.56,.41,.95,.41,1.14s-.13,.55-.39,1.07c-.26,.51-.59,1.08-.97,1.71-.39,.63-.67,1.04-.85,1.24-.18,.2-.33,.3-.45,.3s-.28-.05-.45-.16c-.18-.1-.48-.16-.89-.16s-.92,.14-1.51,.41c-.59,.27-1.04,.41-1.36,.41s-.66-.04-1.02-.13c-.17,.59-.22,1.27-.16,2.04,1.71-.48,3.06-.84,4.03-1.08,.97-.24,1.7-.36,2.18-.36,.73,0,1.42,.23,2.05,.69,.64,.46,.96,.99,.96,1.6,0,.23-.07,.44-.22,.63-.77,.98-1.24,1.6-1.4,1.85s-.24,.45-.24,.61,.06,.31,.17,.45c.11,.15,.17,.29,.17,.44s-.1,.29-.3,.42c-.2,.14-.4,.2-.6,.2s-.36-.01-.49-.03c-.77-.15-1.51-.22-2.2-.22-1.19,0-2.01,.21-2.46,.63-.45,.42-.82,.63-1.11,.63s-.52-.19-.67-.58c-.16-.39-.38-1.04-.66-1.96s-.42-2.01-.42-3.28,.07-2.87,.2-4.81c.14-1.94,.27-3.11,.41-3.51,.14-.4,.28-.6,.42-.6,.25,0,.5,.55,.75,1.66,1.36-.77,2.44-1.35,3.23-1.74,.79-.39,1.4-.58,1.82-.58s.86,.17,1.32,.5c.46-.08,1.12-.29,1.98-.63,.86-.33,1.33-.54,1.43-.63,.09-.08,.14-.19,.14-.31,0-.27-.23-.49-.71-.66-.47-.17-1.16-.25-2.05-.25s-1.92,.15-3.07,.44c-.54,.52-1,.9-1.36,1.14s-.71,.36-1.03,.36-.76-.09-1.3-.28c-1.25,.17-2.19,.31-2.79,.42-.61,.12-1.04,.22-1.3,.31-.26,.09-.44,.22-.55,.38-.1,.16-.33,.7-.69,1.61-.36,.92-.6,1.6-.72,2.04s-.2,.83-.22,1.16c-.04,.46-.21,.69-.5,.69-.36,0-.68-.41-.97-1.22-.29-.81-.44-1.38-.44-1.69s.11-.58,.35-.8c.23-.22,.43-.55,.6-1,.17-.45,.25-.86,.25-1.22s-.04-.67-.13-.91c-.08-.24-.13-.41-.13-.5s.06-.14,.17-.14,.33,.06,.66,.17c.32,.12,.61,.38,.86,.8,1.07-.71,3.01-1.31,5.83-1.79,.04-.15-.13-.41-.5-.78-.54-.02-.9-.07-1.07-.16-.17-.08-.37-.35-.61-.8-.24-.45-.51-.67-.8-.67s-.99,.51-2.1,1.54c-.29,.27-.52,.41-.69,.41-.31,0-.47-.51-.47-1.54,0-.38,.05-.69,.16-.94,.1-.25,.23-.39,.38-.41,.5-.08,.97-.44,1.4-1.07,.43-.63,.64-1.06,.64-1.29s-.05-.42-.16-.56c-.1-.15-.16-.25-.16-.31,0-.23,.2-.35,.61-.35s.86,.17,1.36,.5c.5,.33,.75,.76,.75,1.29,0,.25-.08,.51-.25,.78,.06,.4,.18,.6,.35,.6,.33,0,.89-.72,1.66-2.16,.29-.54,.48-.81,.55-.81s.11,.06,.11,.19-.13,.6-.38,1.43c-.25,.83-.43,1.46-.53,1.9-.1,.44-.15,.86-.13,1.25,.63,.08,1.12,.2,1.47,.35,.36,.15,.82,.46,1.38,.94Zm-3.14,15.65c1.5-.1,2.57-.32,3.2-.64,.63-.32,1.06-.79,1.3-1.4,.24-.61,.36-1.04,.36-1.3s-.12-.39-.36-.39-.93,.14-2.07,.42c-1.14,.28-2.22,.61-3.25,.99,.15,.65,.42,1.42,.82,2.32Zm-.53-7.62c1.32-.08,2.47-.43,3.46-1.03,.99-.61,1.49-1.32,1.49-2.13,0-.17-.07-.25-.2-.25s-.57,.25-1.3,.75c-.31,.23-.71,.35-1.18,.35s-1.2-.13-2.18-.38c.04,.48,.06,.92,.06,1.3s-.05,.85-.16,1.4Zm7.37-14.49c.63-.1,1.15-.16,1.57-.16s.86,.12,1.32,.34c.46,.23,.69,.48,.69,.74s-.08,.47-.23,.63c-.16,.16-.49,.26-.99,.31-.5,.05-.89,.13-1.18,.22-.28,.09-.56,.25-.83,.45,.46,.44,.69,.92,.69,1.44,0,.27-.07,.49-.22,.66-.15,.17-.54,.37-1.18,.6s-1.11,.34-1.41,.34-.59-.06-.85-.17c-.26-.11-.39-.27-.39-.45s.23-.38,.71-.56c.47-.19,.71-.4,.71-.63s-.1-.53-.31-.91c-.36,.25-.64,.48-.85,.69-.21,.21-.39,.31-.53,.31-.4,0-.6-.41-.6-1.22s.07-1.37,.2-1.66c.14-.29,.44-.56,.93-.82,.06-.88-.09-1.53-.47-1.94-.25-.25-.38-.42-.38-.5s.05-.13,.16-.13c.31,0,.9,.26,1.77,.77,.87,.51,1.43,1.06,1.68,1.65Z"/>
    <path class="cls-1" d="M107.71,18.21c.77-.65,1.29-.97,1.54-.97s.38,.26,.38,.78-.39,1.22-1.16,2.09c-.77,.87-1.78,1.73-3.01,2.59-.56,.42-.97,.82-1.22,1.19-.36,.56-.76,.85-1.21,.85s-.77-.29-.96-.88c-.19-.59-.28-1.14-.28-1.66,0-.44,.18-.74,.53-.91,.36-.17,.65-.39,.89-.66,.24-.27,.65-.91,1.24-1.91-.94-.56-1.41-.95-1.41-1.16,0-.1,.1-.16,.31-.16s.43,.02,.67,.05c.24,.03,.42,.05,.55,.05,.36,0,.53-.21,.53-.63-1.07,.04-1.98-.02-2.74-.17-.76-.16-1.14-.39-1.14-.71s.25-.64,.74-.99c.49-.34,.98-.66,1.46-.94s1.15-.44,2.01-.49c.1-.82,.18-1.64,.22-2.48-.29,.04-.52,.06-.69,.06-.46,0-1.02-.28-1.68-.83-.66-.55-.99-.9-.99-1.03s.03-.22,.09-.25c.06-.03,.14-.05,.22-.05h.25c.46,0,.95-.16,1.47-.47,.52-.31,1.01-.74,1.47-1.29,.17-.19,.49-.28,.97-.28s.84,.05,1.07,.16c.23,.1,.48,.42,.74,.94,.26,.52,.39,.99,.39,1.41s-.09,.89-.28,1.41c-.52,1.46-.78,2.65-.78,3.54,0,.4,.05,.69,.16,.86,.1,.18,.16,.42,.16,.72s-.17,1.04-.5,2.21Zm3.92-8.59c.61-.98,1.49-1.73,2.65-2.24,1.16-.51,2.42-.77,3.79-.77s2.51,.28,3.43,.85c.92,.56,1.38,1.23,1.38,2.01,0,.29-.1,.65-.31,1.08-.21,.43-.46,1.09-.75,1.99-.77,2.34-1.68,3.72-2.73,4.14-.73,.69-1.25,1.32-1.57,1.88,.86-.04,1.48,.21,1.87,.77,.39,.55,.58,.94,.58,1.16s-.21,.4-.63,.55c-.31,.1-1.04,.67-2.16,1.69,.02,.1,.02,.22,0,.34,.69,.04,1.36,0,2.02-.14,.66-.14,1.04-.2,1.14-.2,.61,0,1.11,.26,1.52,.78,.41,.52,.61,1.01,.61,1.47s-.21,.69-.63,.69-.95-.07-1.58-.2c-.64-.14-1.28-.2-1.93-.2-1.48,0-3.14,.3-4.95,.91-.88,.29-1.45,.44-1.73,.44s-.54-.26-.8-.77c-.26-.51-.39-.89-.39-1.14,0-.59,.51-.94,1.54-1.07,.35-.04,.77-.17,1.25-.39,.48-.22,.83-.44,1.03-.67-.82-.19-1.48-.44-2.01-.77-.52-.32-.78-.6-.78-.83,0-.42,.22-.71,.66-.88,.86-.33,1.73-.92,2.63-1.76,.04-.33-.03-.5-.22-.5s-.44,.05-.77,.14c-.32,.09-.55,.14-.67,.14-.56,0-.87-.38-.91-1.13-.02-.27-.09-.58-.2-.92-.12-.35-.26-.61-.44-.78-.18-.18-.37-.71-.56-1.6-.2-.89-.33-1.77-.39-2.63-.06-.87-.16-1.4-.28-1.6-.13-.2-.19-.35-.19-.45s.05-.16,.16-.16c.25,0,.69,.26,1.32,.78Zm3.51,.85c.04-.67-.07-1.08-.34-1.22-.96,.12-1.66,.26-2.1,.41-.44,.15-.69,.4-.75,.75,.08,.29,.16,.84,.22,1.63,1.21-.61,2.21-1.13,2.98-1.57Zm-.13,3.23c-.82-.02-1.74-.3-2.76-.85,.12,.69,.3,1.52,.53,2.48,.42-.02,1.16-.56,2.23-1.63Zm2.41,.97c.36-.04,.68-.11,.97-.22,.29-.1,.48-.34,.56-.72l.66-2.26c.33-1.13,.56-1.86,.67-2.19s.17-.6,.17-.78c0-.33-.17-.5-.5-.5-.54,0-1.57,.2-3.07,.6,.1,.36,.16,.79,.16,1.32,.48,.1,.87,.35,1.16,.74,.29,.39,.44,.74,.44,1.07s-.05,.57-.16,.74c-.52,.84-.84,1.37-.96,1.6s-.15,.44-.11,.63Z"/>
    <path class="cls-1" d="M136.37,13.54c.44,.54,.72,1,.85,1.36,.13,.37,.19,.88,.19,1.55v4.17c.02,1.23-.02,2.84-.11,4.81s-.23,3.15-.39,3.51c-.17,.37-.35,.55-.55,.55s-.53-.45-1-1.36c-.47-.91-.71-1.59-.71-2.04s.06-1.03,.19-1.74c.25-1.36,.38-3.27,.38-5.74,0-1.38-.03-2.22-.09-2.51-.06-.29-.15-.44-.25-.44-.25,0-.95,.66-2.1,1.98-.54,.63-.97,.94-1.27,.94s-.54-.26-.71-.78c-.17-.52-.25-1.05-.25-1.58s.07-1.02,.22-1.47c.15-.45,.35-.67,.61-.67s.51-.1,.74-.31c.23-.21,.84-1.03,1.83-2.48,.99-1.44,1.7-2.57,2.12-3.39,.42-.82,.63-1.38,.63-1.71s-.05-.55-.14-.67c-.09-.13-.14-.3-.14-.53s.06-.34,.19-.34c.04,0,.08,.02,.13,.06,.31,.23,.63,.38,.94,.44,.59,.1,1.1,.42,1.55,.96,.45,.53,.67,1.06,.67,1.58s-.14,.95-.41,1.29c-.67,.84-1.24,1.67-1.72,2.49-.48,.83-.94,1.52-1.38,2.09Zm12.54-4.61c1.82-.38,3.08-.56,3.78-.56s1.24,.3,1.63,.89c.39,.6,.58,1.07,.58,1.41s-.31,.56-.92,.64c-.62,.08-1.3,.2-2.04,.36-.74,.16-1.32,.32-1.72,.49-.41,.17-.83,.31-1.27,.44,1.13,.42,1.69,.93,1.69,1.54,0,.21-.07,.4-.2,.58-.14,.18-.31,.31-.52,.39-1.55,.65-2.61,1.35-3.2,2.1,1.02-.19,1.83-.42,2.41-.69,.27-.13,.59-.19,.96-.19s.74,.17,1.11,.5c.38,.33,.56,.65,.56,.96s-.09,.55-.27,.75c-.18,.2-.42,.28-.72,.25-.3-.03-.6-.05-.88-.05s-.66,.11-1.13,.33c-.47,.22-.82,.33-1.05,.33s-.41-.08-.53-.25c-1.4,.61-2.32,1.05-2.74,1.32-.43,.27-.74,.43-.92,.47-.15,.21-.22,.43-.22,.67s.19,.4,.56,.49c1.96-.69,3.07-1.03,3.32-1.03,.5,0,.91-.18,1.22-.53,.17-.17,.39-.25,.66-.25,.56,0,1.19,.22,1.88,.66s1.04,1.09,1.04,1.94c0,.21-.06,.39-.17,.55s-.25,.46-.39,.91c-.15,.45-.31,.83-.5,1.13-.19,.3-.28,.51-.28,.61,0,.29,.17,.54,.5,.75,.12,.08,.19,.25,.19,.5s-.06,.48-.17,.69c-.12,.21-.25,.33-.41,.36-.16,.03-.43,.05-.82,.05s-.76-.04-1.13-.13c-.37-.08-.76-.13-1.19-.13s-.9,.11-1.41,.35c-.51,.23-.84,.47-.97,.72-.14,.25-.27,.38-.41,.38s-.33-.13-.6-.38c-.26-.25-.51-.71-.75-1.36-.24-.66-.42-1.38-.55-2.16-.13-.78-.25-1.37-.38-1.76-.13-.39-.19-.76-.19-1.11,0-.71,.18-1.31,.53-1.79-.75-.5-1.24-.87-1.46-1.1-.22-.23-.33-.56-.33-1s.19-.7,.56-.78c1.48-.25,2.7-.76,3.64-1.54-.65,0-1.21-.1-1.68-.3-.47-.2-.81-.4-1.02-.6-.21-.2-.31-.42-.31-.67,0-.56,.19-.85,.56-.85,.08,0,.18,.02,.3,.06,.11,.04,.22,.06,.33,.06,.31,0,.98-.16,2.01-.49,1.02-.32,1.66-.53,1.9-.63,.24-.09,.36-.18,.36-.27s-.01-.16-.03-.22c-.36,.13-.73,.2-1.11,.24-.39,.03-.7,.08-.94,.16-.24,.07-.41,.11-.5,.11s-.14-.02-.14-.06,.07-.09,.22-.16c.84-.35,1.77-.79,2.79-1.32,1.02-.52,1.57-.82,1.65-.88,.07-.06,.11-.15,.11-.25s-.12-.16-.34-.16-1.01,.26-2.35,.78c-1.34,.52-2.47,1.13-3.39,1.83-.92,.7-1.72,1.05-2.4,1.05s-1.29-.27-1.83-.8c-.54-.53-.81-.91-.81-1.14s.07-.38,.2-.45c.14-.07,.38-.11,.72-.11s.8-.12,1.38-.36c.57-.24,1.41-.64,2.51-1.19,1.1-.55,1.77-.95,2.02-1.18s.38-.4,.38-.52-.02-.19-.06-.23c-.52-.59-1-1.19-1.44-1.82-.44-.63-.66-1-.66-1.13s.05-.21,.16-.27,.29-.07,.55-.06c.26,.01,.53,.02,.8,.02s.51-.03,.72-.08c.21-.05,.37-.08,.47-.08,.52,0,1.13,.24,1.82,.72s1.03,1.14,1.03,1.98c0,.21-.06,.44-.17,.69-.12,.25-.17,.53-.17,.85Zm-3.95,15.37c.06,.88,.14,1.44,.22,1.68,.08,.24,.24,.36,.47,.36,.42,0,.97-.1,1.66-.3,.69-.2,1.15-.62,1.38-1.25,.23-.64,.35-1.08,.35-1.33s-.08-.38-.25-.38-.37,.05-.6,.16c-1.28,.59-2.35,.94-3.23,1.07Z"/>
    <path class="cls-1" d="M177.13,24.46c1.84,1.09,3.55,1.96,5.14,2.63,.65,.27,.97,.67,.97,1.19,0,.25-.1,.49-.31,.72-.21,.23-.82,.44-1.82,.63-1,.19-2.04,.28-3.12,.28s-2.2-.18-3.36-.55-2.21-.84-3.14-1.43c-.93-.59-1.53-1.12-1.8-1.6-.27-.48-.53-1.32-.78-2.51-.15-.65-.33-.97-.56-.97s-.47,.16-.72,.47c-.21,1.21-.45,2.3-.72,3.28-.27,.97-.49,1.57-.66,1.79-.17,.22-.36,.33-.56,.33s-.39-.22-.53-.66c-.15-.44-.22-.96-.22-1.55s.04-1.02,.12-1.27c.08-.25,.29-.63,.61-1.13,.32-.5,.61-1.02,.86-1.57,.5-1.09,1.26-1.63,2.29-1.63,.25,0,.38,.04,.38,.13s-.18,.16-.55,.23c-.37,.07-.63,.21-.78,.42-.16,.21-.25,.61-.27,1.19,.67-.46,1.15-.69,1.44-.69,.48,0,.95,.67,1.41,2.01,.33,1,1.12,1.83,2.37,2.48,1.24,.65,2.79,.97,4.63,.97,1.19,0,1.79-.09,1.79-.28,0-.12-.23-.41-.71-.85-.47-.44-1.18-.99-2.12-1.66-.59,.27-1.2,.59-1.85,.94-.25,.15-.5,.22-.74,.22s-.56-.35-.96-1.03c-.4-.69-.6-1.09-.6-1.19s.05-.2,.16-.28c.1-.08,.16-.21,.16-.38s-.04-.35-.11-.55c-.07-.2-.11-.33-.11-.39,0-.21,.18-.31,.55-.31s.65,.05,.85,.16c.2,.1,.44,.36,.74,.75,.19,.25,.37,.38,.55,.38s.85-.14,2.02-.41c1.17-.27,2.01-.5,2.52-.67,.51-.18,.86-.27,1.03-.27s.27,.03,.27,.09c0,.15-.39,.49-1.16,1.02-.77,.53-1.64,1.04-2.6,1.52Zm-6.52-12.39c.33-.15,.72-.37,1.16-.66,.44-.29,.69-.47,.75-.53,.06-.06,.09-.14,.09-.22,0-.19-.22-.29-.66-.31-.25-.02-.38-.1-.38-.25,0-.08,.14-.23,.41-.44l1.57-1.32c.79-.65,1.28-1.03,1.46-1.16,.18-.13,.42-.19,.74-.19s.86,.21,1.65,.63c.78,.42,1.27,.75,1.47,1,.2,.25,.3,.64,.3,1.18s-.11,2.02-.33,4.47c-.22,2.45-.39,4.06-.52,4.84-.13,.78-.28,1.44-.45,1.96-.18,.52-.31,.82-.39,.89-.08,.07-.21,.11-.39,.11s-.42-.21-.74-.63c-.31-.42-.47-1.02-.47-1.82-.23-.21-.43-.37-.6-.47-.56,.31-1.39,.54-2.48,.67-1.09,.14-1.85,.2-2.29,.2s-.75-.11-.94-.33c-.19-.22-.43-.67-.72-1.36-.29-.69-.44-1.48-.44-2.37s.07-2.07,.2-3.56c.14-1.48,.35-2.65,.66-3.5,.3-.85,1.06-1.75,2.27-2.71,.48-.4,.72-.71,.72-.94s-.15-.53-.44-.89c-.29-.37-.44-.6-.44-.71s.06-.16,.19-.16c.1,0,.44,.13,1,.38,.56,.25,.95,.4,1.16,.44,.56,.1,.96,.35,1.18,.74,.22,.39,.33,.72,.33,.99,0,.56-.34,.94-1.03,1.11-.69,.18-1.38,.49-2.07,.92-.36,.21-.7,.33-1.03,.38-.56,.06-.81,.48-.72,1.25,.15,1.25,.22,2.04,.22,2.35Zm-.25,2.63c.23-.38,.56-.6,1-.66,.15-.02,.22-.08,.22-.17s-.04-.14-.12-.14c-.33,0-.66-.16-.97-.47-.1,.38-.16,.66-.16,.86s.01,.39,.03,.58Zm.09,2.73c.48-.15,.89-.32,1.22-.52s.5-.35,.5-.44-.04-.14-.11-.14-.18,.05-.33,.14c-.15,.09-.33,.14-.56,.14s-.37-.1-.42-.3c-.05-.2-.18-.3-.39-.3,.02,.77,.05,1.24,.09,1.41Zm3.23-.03c.25-.04,.49-.06,.72-.06s.43,.09,.61,.27c.18,.18,.35,.47,.53,.88s.32,.61,.44,.61,.2-.02,.25-.06,.09-.1,.13-.17c.03-.07,.06-.23,.08-.49l.34-5.21c.06-.9,.09-1.6,.09-2.12s-.08-1.01-.24-1.5-.32-.74-.49-.74c-.08,0-.31,.15-.67,.46-.37,.3-.84,.63-1.43,.99,.94,.63,1.41,1.13,1.41,1.5s-.26,.77-.78,1.19c-.36,.27-.51,.53-.47,.78,.79,.19,1.19,.55,1.19,1.1,0,.27-.21,.69-.63,1.25-.42,.56-.67,.86-.75,.88-.29,.08-.41,.23-.35,.44Zm7.59,3.92c.31,0,.91,.14,1.79,.42,.88,.28,1.49,.67,1.83,1.18,.35,.5,.52,1,.52,1.51,0,.54-.42,.76-1.25,.66-.23-.02-.46-.03-.69-.03s-.51,.04-.85,.13c-.33,.08-.75,.13-1.25,.13s-1.04-.1-1.6-.3-.85-.39-.85-.58c0-.15,.29-.28,.86-.41,.57-.13,1.11-.31,1.6-.56,.49-.25,.74-.54,.74-.86s-.21-.61-.63-.86c-.25-.15-.38-.25-.38-.31s.05-.09,.16-.09Z"/>
    <path class="cls-1" d="M205.79,2.76c.84,0,1.79,.22,2.87,.67,1.08,.45,1.61,.98,1.61,1.58,0,.86-.33,1.4-1,1.63-.17,.04-.5,.2-.99,.47-.49,.27-.89,.52-1.21,.75-2.74,2.03-4.78,3.43-6.13,4.22-1.35,.78-2.42,1.18-3.21,1.18-.23,0-.39-.1-.47-.3s-.13-.57-.13-1.13,.04-.91,.11-1.07,.26-.25,.56-.27c.3-.02,.87-.3,1.71-.85,.84-.54,1.88-1.36,3.14-2.45,1.25-1.09,2.04-1.84,2.35-2.27,.31-.43,.45-.8,.42-1.11s-.05-.57-.05-.77,.14-.3,.41-.3Zm4.08,14.86c-.06-.36-.26-.68-.6-.97-.08-.06-.13-.16-.13-.28s.1-.19,.31-.19,.72,.14,1.54,.41c.82,.27,1.38,.61,1.69,1.02,.31,.41,.47,1.12,.47,2.15,0,.19-.07,.36-.2,.5-.14,.15-.31,.22-.52,.22-.12,0-.43-.13-.92-.38-.49-.25-.92-.44-1.27-.56-.36-.13-.69-.19-.99-.19s-.75,.07-1.33,.22c.19,.54,.28,1.03,.28,1.46s-.05,.8-.14,1.13c-.09,.32-.14,.8-.14,1.43s.05,1.32,.14,2.07c.09,.75,.14,1.3,.14,1.63,0,1.04-.2,1.84-.6,2.4-.4,.55-.76,.83-1.1,.83s-.62-.19-.86-.56c-.24-.38-.43-.64-.58-.78s-.34-.26-.6-.34c-.63-.23-1.57-.86-2.82-1.88-.69,.4-1.13,.69-1.33,.89-.2,.2-.42,.55-.66,1.07s-.54,.77-.89,.77c-.17,0-.3-.07-.41-.2-.1-.14-.27-.54-.49-1.21-.22-.67-.33-1.08-.33-1.22s.06-.32,.17-.52c.11-.2,.17-.43,.17-.71l-.09-.81c0-.27,.13-.41,.38-.41s.44,.08,.58,.25c.14,.17,.3,.48,.49,.94l5.86-1.82c-1.02,.84-1.9,1.66-2.63,2.48,1.02,.29,1.83,.44,2.43,.44s.89-.17,.89-.5l-.16-2.92c-.04-.96-.11-1.57-.22-1.83-.1-.26-.39-.49-.85-.67-1.32,.73-2.32,1.34-3.01,1.82-.36,.25-.72,.38-1.08,.38s-.75-.39-1.14-1.18c-.4-.78-.6-1.32-.6-1.61,0-.61,.44-.91,1.32-.91,.44,0,.86-.15,1.25-.45,.4-.3,1.18-1.05,2.35-2.24-.06-.1-.22-.16-.49-.16s-.57,.06-.92,.17c-.36,.11-.61,.23-.75,.36-.52,.46-1.03,.69-1.52,.69s-.83-.15-1.02-.44c-.19-.29-.28-.98-.28-2.07,0-.38,.1-.67,.3-.89,.2-.22,.54-.4,1.02-.55,.48-.17,1.66-.94,3.53-2.32,1.87-1.38,2.85-2.23,2.93-2.54s.24-.55,.47-.71,.5-.24,.8-.24,.71,.24,1.21,.71c.5,.47,.75,.85,.75,1.13s-.15,.49-.44,.61c-.88,.44-1.81,1.08-2.79,1.93-.98,.85-1.47,1.34-1.47,1.49s.32,.28,.97,.41c1.15-1,2.08-1.76,2.81-2.26,.72-.5,1.27-.75,1.66-.75s.77,.15,1.16,.45c.39,.3,.58,.63,.58,.99,0,.46-.31,.82-.94,1.07-.4,.17-.9,.47-1.51,.89-.61,.43-1.38,1.05-2.32,1.85-.94,.81-1.44,1.25-1.51,1.33-.06,.08-.09,.17-.09,.25s.05,.13,.16,.13,.2-.01,.28-.03c1.44-.35,2.65-.56,3.64-.63Zm-.91,5.33c.31-.06,.68-.09,1.1-.09,1.32,0,2.49,.25,3.51,.75,1.02,.5,1.54,1.16,1.54,1.98,0,.56-.26,1.21-.77,1.93-.51,.72-.92,1.08-1.21,1.08-.1,0-.2-.05-.28-.16-.36-.54-1.31-1.46-2.85-2.76-.08-.06-.13-.12-.13-.19s.06-.09,.17-.09,.29,.02,.52,.05,.48,.05,.75,.05c.77,0,1.16-.16,1.16-.47,0-.21-.24-.51-.72-.89-.48-.39-1.41-.78-2.79-1.18Z"/>
    <path class="cls-1" d="M230.32,18.78c.52,.42,.81,.69,.86,.82,.05,.12,.13,.19,.22,.19s.19-.07,.28-.22c.09-.15,.38-.82,.85-2.02,.47-1.2,.86-2.38,1.18-3.53,.31-1.15,.52-1.82,.63-2.02,.1-.2,.22-.3,.34-.3,.06,0,.09,.07,.09,.22,0,.25-.47,2.06-1.41,5.44-.94,3.38-1.62,5.51-2.02,6.4-.41,.89-.73,1.71-.97,2.48-.24,.76-.47,1.31-.69,1.65-.22,.33-.55,.5-.99,.5-.88,0-1.32-.9-1.32-2.7,0-.27,.04-.46,.13-.58,.08-.11,.27-.25,.55-.41,.28-.16,.55-.61,.82-1.36,.26-.75,.39-1.39,.39-1.91s-.09-.81-.28-.88c-1.09,.56-1.85,.85-2.29,.85s-.66-.43-.66-1.29c0-.38,.02-.76,.06-1.16,.04-.4,.09-.63,.16-.71,.06-.07,.18-.12,.35-.14,.73-.04,1.29-.39,1.68-1.03,.39-.65,.58-1.17,.58-1.57,0-.17-.1-.25-.31-.25s-.55,.08-1.02,.23c-.47,.16-.78,.24-.92,.24-.4,0-.74-.18-1.02-.55-.28-.37-.42-.84-.42-1.41s.05-.96,.16-1.16c.1-.2,.31-.3,.63-.3,.73,0,1.77-.64,3.12-1.93,1.35-1.29,2.02-2.24,2.02-2.87,0-.06-.02-.14-.05-.22s-.05-.16-.05-.22c0-.19,.2-.28,.6-.28,.69,0,1.38,.31,2.07,.93s1.03,1.08,1.03,1.4c0,.67-1.19,1.73-3.57,3.17-.46,.27-.69,.5-.69,.69,0,.15,.17,.32,.52,.53,.35,.21,.6,.48,.77,.82,.17,.33,.25,.6,.25,.8s-.11,.55-.33,1.05c-.22,.5-.65,1.38-1.3,2.63Zm12.01-1.47c.96,.48,1.44,.91,1.44,1.29,0,.23-.19,.56-.56,1-.38,.44-.88,1.38-1.5,2.84-.63,1.45-.94,2.37-.94,2.76s.18,.66,.55,.82c.37,.16,1.03,.23,1.99,.23s1.9-.05,2.82-.14c.92-.09,1.51-.2,1.76-.33,.25-.13,.49-.34,.72-.66,.23-.31,.43-.67,.61-1.08,.18-.41,.3-.8,.38-1.19,.07-.39,.11-.83,.11-1.32s.03-.74,.1-.74,.16,.18,.28,.55,.33,1.13,.61,2.29c.28,1.16,.42,1.94,.42,2.34s-.16,.74-.49,1.04c-.32,.29-1.08,.56-2.27,.8s-2.46,.36-3.79,.36-2.6-.18-3.79-.55c-1.19-.37-1.79-1.06-1.79-2.09,0-.63,.23-1.45,.69-2.48,.98-2.24,1.47-3.47,1.47-3.68s-.05-.4-.16-.55c-.59,.63-.98,1.07-1.19,1.32l-2.57,3.14c-1.76,2.11-2.73,3.25-2.93,3.4-.2,.16-.36,.24-.49,.24-.33,0-.5-.58-.5-1.72,0-.84,.17-1.33,.5-1.47,.33-.15,.94-.68,1.82-1.62,.88-.93,1.82-2.09,2.82-3.46-.33,.06-.8,.29-1.41,.69-.38,.25-.74,.38-1.08,.38s-.63-.18-.85-.55c-.22-.37-.33-.88-.33-1.55,0-.92,.38-1.39,1.13-1.41,.19,0,.35-.07,.5-.2,.15-.14,.48-.51,.99-1.13,.51-.62,.82-1.01,.93-1.19,.1-.18,.15-.33,.12-.46-.44,.15-.85,.22-1.22,.22-.75,0-1.31-.26-1.68-.77-.37-.51-.55-1.01-.55-1.49,0-.23,.07-.34,.2-.34s.24,.04,.31,.11c.07,.07,.17,.11,.3,.11,.61,0,1.73-.36,3.39-1.08,1.65-.72,2.48-1.29,2.48-1.71,0-.25-.19-.46-.56-.63-.92-.4-1.54-.72-1.85-.96-.31-.24-.67-.57-1.07-.99-.4-.42-.6-.75-.6-.99s.22-.36,.66-.36c1.32,0,2.45,.26,3.39,.77,.94,.51,1.41,1.06,1.41,1.65,0,.25-.09,.69-.28,1.32,1.34,.38,2.01,.86,2.01,1.44,0,.42-.37,.94-1.1,1.57-1.38,1.21-2.34,2.11-2.88,2.7-.54,.59-.86,1.11-.94,1.57,.73-.23,1.34-.62,1.82-1.18,.48-.55,.85-1.03,1.1-1.43,.1-.15,.35-.22,.74-.22s.84,.11,1.35,.33c.51,.22,.77,.61,.77,1.18s-.41,1.1-1.24,1.6c-.83,.5-1.51,1.07-2.05,1.69Z"/>
  </g>
  <g>
    <path class="cls-2" d="M20.63,20.48c.77,.65,1.92,1.36,3.43,2.13,1.52,.77,2.67,1.27,3.45,1.47,.78,.21,1.37,.46,1.76,.75,.39,.29,.58,.69,.58,1.19,0,.19-.1,.32-.3,.39-.2,.07-.81,.11-1.83,.11s-1.97-.07-2.82-.2c-.86-.14-1.65-.45-2.37-.94-.72-.49-1.69-1.42-2.9-2.77-.27,.42-.77,.74-1.5,.96-.73,.22-1.56,.33-2.48,.33s-1.65-.11-2.19-.35c-.21,1.46-.5,2.64-.86,3.53-.37,.89-.66,1.33-.89,1.33-.13,0-.3-.19-.53-.58-.23-.39-.51-.69-.83-.89-.32-.21-.88-.71-1.68-1.5-.79-.79-1.29-1.36-1.47-1.69-.42-.27-.63-.53-.63-.77s.39-.62,1.16-1.13c.77-.51,1.77-1.1,2.98-1.77-.52-.21-.78-.65-.78-1.32,0-.33,.07-.62,.2-.86,.14-.24,.3-.38,.49-.42,.86-.15,1.36-.85,1.5-2.1-1.07,1.07-2.15,1.76-3.26,2.07-1.19,1.74-2.29,3.28-3.29,4.64-1,1.36-1.69,2.24-2.07,2.63-.38,.4-.66,.6-.85,.6s-.28-.21-.28-.63c0-.79,.19-1.65,.58-2.57,.39-.92,.84-1.69,1.36-2.3,.52-.62,1.49-1.6,2.92-2.96l1.66-1.57c.36-.35,.67-.74,.96-1.14s.43-.73,.45-.96c-1.44,.61-2.53,1.19-3.26,1.76-.61,.46-1.6,1.06-2.99,1.8-1.39,.74-2.23,1.11-2.52,1.11s-.58-.3-.85-.89c-.27-.6-.41-1.03-.41-1.3s.09-.41,.27-.41,.36,.08,.55,.25c.06,.06,.18,.09,.35,.09s.37-.1,.61-.3c.24-.2,.77-.51,1.6-.94,.83-.43,1.62-.78,2.37-1.05,1.92-.67,3.17-1.57,3.73-2.7-1.23-.48-2.07-1.08-2.51-1.8s-.66-1.18-.66-1.36,.18-.28,.53-.27c.35,.01,.56,.02,.63,.02,.46,0,.96-.1,1.49-.31,.53-.21,.95-.47,1.24-.78,.1-.52,.16-1.02,.16-1.5s-.21-.97-.63-1.47c-.13-.17-.19-.32-.19-.47,0-.38,.29-.56,.88-.56s1.29,.27,2.12,.82c.83,.54,1.24,1.1,1.24,1.66,0,.17-.04,.33-.13,.5,.56,.04,.93,.14,1.1,.3,.17,.16,.25,.44,.25,.86s-.05,.72-.14,.89c-.09,.18-.4,.48-.92,.89-.19,.15-.53,.53-1.02,1.16-.49,.63-.74,1.01-.74,1.16s.02,.28,.06,.41c.52-.75,1.47-1.87,2.85-3.36,.35-.35,.53-.68,.53-.97s.13-.44,.38-.44,.6,.16,1.04,.49,.66,.68,.66,1.07-.21,.7-.63,.93c-.94,.5-1.61,1.03-2.01,1.6,.9,.13,1.46,.23,1.69,.3,.23,.07,.34,.18,.34,.33,0,.61-.55,.95-1.66,1.02s-1.86,.17-2.26,.3-.78,.42-1.14,.88c-.37,.46-.57,.84-.61,1.13,.4-.13,.74-.36,1.03-.69,.21-.23,.43-.34,.66-.34s.52,.13,.88,.39c.36,.26,.53,.63,.53,1.11,0,.25-.09,.62-.28,1.11-.19,.49-.3,.9-.34,1.24,.61-.15,1.08-.46,1.41-.94,.06-.4,.35-.61,.88-.63,.54-.86,1.22-2.39,2.02-4.59,.8-2.21,1.21-3.6,1.21-4.19,0-.25-.04-.38-.12-.38s-.17,.02-.25,.06c-.08,.04-.17,.06-.27,.06s-.14-.23-.14-.69c0-.94,.05-1.53,.14-1.76s.31-.35,.64-.35c.44,0,.85,.38,1.22,1.13,.38,.75,.56,1.41,.56,1.98s-.06,1.02-.17,1.36c-.12,.34-.33,.8-.64,1.36-.69,1.21-1.27,2.57-1.72,4.08,1.17-.88,2.1-1.53,2.78-1.94,.68-.42,1.2-.63,1.57-.63s.77,.19,1.21,.58c.44,.39,.66,.7,.66,.93s-.18,.38-.53,.45c-.36,.07-.91,.26-1.68,.56-.76,.3-1.43,.61-1.99,.93,0,.1,.04,.21,.13,.33,.08,.12,.22,.2,.41,.25s.28,.2,.28,.44-.05,.54-.16,.89c-.61,2.15-.92,3.61-.94,4.36Zm-14.05-1.91c-.61,.08-1.29,.6-2.05,1.54-.76,.94-1.14,1.72-1.14,2.35,0,.15,.02,.28,.06,.41,1.09-1.59,2.13-3.02,3.14-4.3Zm5.3,2.92c-.73,.79-1.35,1.4-1.85,1.8-.5,.41-.95,.61-1.33,.61s-.8-.05-1.24-.16c.33,.46,.83,.92,1.49,1.38,.66,.46,1.28,.69,1.87,.69,.23,0,.4-.11,.52-.33,.11-.22,.23-.76,.36-1.61,.13-.86,.19-1.65,.19-2.38Zm6.27-.66c-.59-1.02-2.04-1.7-4.36-2.04-.19,.38-.28,.83-.28,1.35l.06,1.88c0,.36-.01,.66-.03,.91,2.07,.04,3.61-.66,4.61-2.1Zm1.41-5.8c-.79,.61-1.33,.98-1.62,1.11-.28,.14-.61,.2-.99,.2-.77,0-1.21-.14-1.32-.41-.15,.52-.45,1.08-.91,1.66,1.5,.06,2.93,.64,4.26,1.73,.54-2.01,.82-3.19,.82-3.56s-.08-.61-.25-.74Z"/>
    <path class="cls-2" d="M49.14,8.59c.9-.15,1.67-.22,2.32-.22,1.34,0,2.46,.37,3.36,1.1,.9,.73,1.35,1.46,1.35,2.2,0,.31-.09,.57-.27,.77-.18,.2-.41,.3-.71,.3l-.44-.03c-.27,0-.61,.07-1,.2-.4,.14-.71,.29-.94,.46-.4,.29-.77,.44-1.11,.44s-.65-.02-.92-.06c.08,.27,.12,.54,.12,.82,0,.59-.17,1.02-.5,1.32-1.23,1.07-1.85,1.74-1.85,2.01,0,.13,.08,.24,.25,.35,.21-.02,.42-.03,.63-.03,.98,0,1.8,.27,2.45,.8,.65,.53,.97,1.06,.97,1.58s-.21,.92-.63,1.19c-.42,.27-1,.41-1.76,.41-.31,2.59-.77,4.42-1.36,5.47s-1.42,1.58-2.46,1.58c-.46,0-1-.15-1.61-.44-.62-.29-1.25-.68-1.9-1.18-.65-.49-1.24-1.03-1.77-1.61-.53-.59-.94-1.1-1.21-1.54-.27-.44-.41-.79-.41-1.07,0-.69,.44-1.41,1.32-2.16s2.34-1.36,4.39-1.82c-.08-.17-.13-.43-.13-.78s.1-.77,.3-1.24,.42-.75,.67-.83c.25-.08,.47-.23,.66-.44,.19-.21,.28-.37,.28-.47s-.1-.16-.31-.16-.56,.13-1.07,.38c-.5,.25-.95,.55-1.35,.91s-.77,.53-1.13,.53-.63-.1-.83-.31c-.2-.21-.3-.46-.3-.77s.06-.65,.19-1.03,.26-.65,.39-.78c.14-.14,.34-.21,.61-.24,.71-.06,1.73-.29,3.07-.67,1.34-.39,2.52-.89,3.54-1.52,1.02-.63,1.67-1.11,1.94-1.44,.27-.33,.41-.58,.41-.75s-.22-.25-.66-.25-1.05,.11-1.82,.34c-.77,.23-1.52,.53-2.24,.91-.72,.38-1.54,.74-2.45,1.08-.91,.34-2.11,.74-3.61,1.18s-2.55,1.17-3.17,2.2c-.62,1.02-1.08,2.55-1.4,4.58-.08,.61-.25,.91-.5,.91-.31,0-.67-.47-1.08-1.41-.41-.94-.61-1.82-.61-2.63,0-.35,.12-.64,.36-.86,.24-.22,.43-.48,.58-.77,.15-.29,.34-.87,.58-1.73,.24-.86,.64-1.5,1.21-1.94s1.23-.66,2.01-.66c.25,0,.5,.02,.75,.06-.71-1.09-1.07-2.32-1.07-3.7,0-.42,.06-.85,.17-1.3,.11-.45,.22-.67,.33-.67s.22,.09,.35,.28c.12,.19,.26,.28,.41,.28s.38-.18,.71-.55c.32-.37,.53-.55,.61-.55s.13,.04,.14,.11c.01,.07,.02,.27,.02,.6s.11,1.03,.34,2.12,.45,1.96,.66,2.63c.94-.44,2-1.04,3.17-1.82-1.25-.63-2.03-1.54-2.32-2.73-.29-1.19-.44-2.09-.44-2.7,0-.36,.11-.53,.33-.53s.73,.28,1.52,.85c1.36-1.9,2.65-2.85,3.89-2.85,.82,0,1.55,.33,2.2,1,.65,.67,.97,1.41,.97,2.23,0,.5-.13,.91-.38,1.22-1.02,1.3-1.97,2.59-2.82,3.89Zm-7.93,3.2c-.17-.5-.51-.75-1.02-.75s-1.07,.19-1.66,.58c-.6,.39-.89,.89-.89,1.52,0,.23,.05,.47,.16,.72,.86-.75,2-1.44,3.42-2.07Zm7.06,10.54c-.65,.02-.97-.03-.97-.16,0-.04,.1-.11,.3-.2,.2-.09,.39-.27,.58-.52-.02-.23-.08-.49-.19-.78-1.99,.92-3.38,1.38-4.17,1.38l-.66-.03c-.71,0-1.26,.22-1.65,.67-.39,.45-.58,.87-.58,1.27,0,.71,.64,1.31,1.91,1.8,1.27,.49,2.29,.74,3.06,.74s1.33-.34,1.71-1.02c.38-.68,.6-1.73,.66-3.15Zm-1.72-14.49c.48-.5,1.03-1.24,1.65-2.21s1.04-1.71,1.25-2.21c.22-.5,.33-.97,.33-1.4s-.1-.77-.3-1.02c-.2-.25-.44-.38-.74-.38-.65,0-1.19,.25-1.63,.75-.44,.5-.69,1.29-.75,2.35,.27,.94,.41,1.65,.41,2.12s-.07,1.13-.22,1.99Z"/>
    <path class="cls-2" d="M79.21,10.79c1-.17,2.09-.25,3.26-.25,2.49,0,4.19,.4,5.11,1.21,.92,.81,1.38,1.5,1.38,2.09,0,.29-.11,.53-.33,.71-.22,.18-.47,.27-.75,.27s-.54-.02-.77-.06c-.63-.15-1.46-.22-2.49-.22s-1.7,.01-1.99,.03c.27,.56,.41,.95,.41,1.14s-.13,.55-.39,1.07c-.26,.51-.59,1.08-.97,1.71-.39,.63-.67,1.04-.85,1.24-.18,.2-.33,.3-.45,.3s-.28-.05-.45-.16c-.18-.1-.48-.16-.89-.16s-.92,.14-1.51,.41c-.59,.27-1.04,.41-1.36,.41s-.66-.04-1.02-.13c-.17,.59-.22,1.27-.16,2.04,1.71-.48,3.06-.84,4.03-1.08,.97-.24,1.7-.36,2.18-.36,.73,0,1.42,.23,2.05,.69,.64,.46,.96,.99,.96,1.6,0,.23-.07,.44-.22,.63-.77,.98-1.24,1.6-1.4,1.85s-.24,.45-.24,.61,.06,.31,.17,.45c.11,.15,.17,.29,.17,.44s-.1,.29-.3,.42c-.2,.14-.4,.2-.6,.2s-.36-.01-.49-.03c-.77-.15-1.51-.22-2.2-.22-1.19,0-2.01,.21-2.46,.63-.45,.42-.82,.63-1.11,.63s-.52-.19-.67-.58c-.16-.39-.38-1.04-.66-1.96s-.42-2.01-.42-3.28,.07-2.87,.2-4.81c.14-1.94,.27-3.11,.41-3.51,.14-.4,.28-.6,.42-.6,.25,0,.5,.55,.75,1.66,1.36-.77,2.44-1.35,3.23-1.74,.79-.39,1.4-.58,1.82-.58s.86,.17,1.32,.5c.46-.08,1.12-.29,1.98-.63,.86-.33,1.33-.54,1.43-.63,.09-.08,.14-.19,.14-.31,0-.27-.23-.49-.71-.66-.47-.17-1.16-.25-2.05-.25s-1.92,.15-3.07,.44c-.54,.52-1,.9-1.36,1.14s-.71,.36-1.03,.36-.76-.09-1.3-.28c-1.25,.17-2.19,.31-2.79,.42-.61,.12-1.04,.22-1.3,.31-.26,.09-.44,.22-.55,.38-.1,.16-.33,.7-.69,1.61-.36,.92-.6,1.6-.72,2.04s-.2,.83-.22,1.16c-.04,.46-.21,.69-.5,.69-.36,0-.68-.41-.97-1.22-.29-.81-.44-1.38-.44-1.69s.11-.58,.35-.8c.23-.22,.43-.55,.6-1,.17-.45,.25-.86,.25-1.22s-.04-.67-.13-.91c-.08-.24-.13-.41-.13-.5s.06-.14,.17-.14,.33,.06,.66,.17c.32,.12,.61,.38,.86,.8,1.07-.71,3.01-1.31,5.83-1.79,.04-.15-.13-.41-.5-.78-.54-.02-.9-.07-1.07-.16-.17-.08-.37-.35-.61-.8-.24-.45-.51-.67-.8-.67s-.99,.51-2.1,1.54c-.29,.27-.52,.41-.69,.41-.31,0-.47-.51-.47-1.54,0-.38,.05-.69,.16-.94,.1-.25,.23-.39,.38-.41,.5-.08,.97-.44,1.4-1.07,.43-.63,.64-1.06,.64-1.29s-.05-.42-.16-.56c-.1-.15-.16-.25-.16-.31,0-.23,.2-.35,.61-.35s.86,.17,1.36,.5c.5,.33,.75,.76,.75,1.29,0,.25-.08,.51-.25,.78,.06,.4,.18,.6,.35,.6,.33,0,.89-.72,1.66-2.16,.29-.54,.48-.81,.55-.81s.11,.06,.11,.19-.13,.6-.38,1.43c-.25,.83-.43,1.46-.53,1.9-.1,.44-.15,.86-.13,1.25,.63,.08,1.12,.2,1.47,.35,.36,.15,.82,.46,1.38,.94Zm-3.14,15.65c1.5-.1,2.57-.32,3.2-.64,.63-.32,1.06-.79,1.3-1.4,.24-.61,.36-1.04,.36-1.3s-.12-.39-.36-.39-.93,.14-2.07,.42c-1.14,.28-2.22,.61-3.25,.99,.15,.65,.42,1.42,.82,2.32Zm-.53-7.62c1.32-.08,2.47-.43,3.46-1.03,.99-.61,1.49-1.32,1.49-2.13,0-.17-.07-.25-.2-.25s-.57,.25-1.3,.75c-.31,.23-.71,.35-1.18,.35s-1.2-.13-2.18-.38c.04,.48,.06,.92,.06,1.3s-.05,.85-.16,1.4Zm7.37-14.49c.63-.1,1.15-.16,1.57-.16s.86,.12,1.32,.34c.46,.23,.69,.48,.69,.74s-.08,.47-.23,.63c-.16,.16-.49,.26-.99,.31-.5,.05-.89,.13-1.18,.22-.28,.09-.56,.25-.83,.45,.46,.44,.69,.92,.69,1.44,0,.27-.07,.49-.22,.66-.15,.17-.54,.37-1.18,.6s-1.11,.34-1.41,.34-.59-.06-.85-.17c-.26-.11-.39-.27-.39-.45s.23-.38,.71-.56c.47-.19,.71-.4,.71-.63s-.1-.53-.31-.91c-.36,.25-.64,.48-.85,.69-.21,.21-.39,.31-.53,.31-.4,0-.6-.41-.6-1.22s.07-1.37,.2-1.66c.14-.29,.44-.56,.93-.82,.06-.88-.09-1.53-.47-1.94-.25-.25-.38-.42-.38-.5s.05-.13,.16-.13c.31,0,.9,.26,1.77,.77,.87,.51,1.43,1.06,1.68,1.65Z"/>
    <path class="cls-2" d="M105.71,17.21c.77-.65,1.29-.97,1.54-.97s.38,.26,.38,.78-.39,1.22-1.16,2.09c-.77,.87-1.78,1.73-3.01,2.59-.56,.42-.97,.82-1.22,1.19-.36,.56-.76,.85-1.21,.85s-.77-.29-.96-.88c-.19-.59-.28-1.14-.28-1.66,0-.44,.18-.74,.53-.91,.36-.17,.65-.39,.89-.66,.24-.27,.65-.91,1.24-1.91-.94-.56-1.41-.95-1.41-1.16,0-.1,.1-.16,.31-.16s.43,.02,.67,.05c.24,.03,.42,.05,.55,.05,.36,0,.53-.21,.53-.63-1.07,.04-1.98-.02-2.74-.17-.76-.16-1.14-.39-1.14-.71s.25-.64,.74-.99c.49-.34,.98-.66,1.46-.94s1.15-.44,2.01-.49c.1-.82,.18-1.64,.22-2.48-.29,.04-.52,.06-.69,.06-.46,0-1.02-.28-1.68-.83-.66-.55-.99-.9-.99-1.03s.03-.22,.09-.25c.06-.03,.14-.05,.22-.05h.25c.46,0,.95-.16,1.47-.47,.52-.31,1.01-.74,1.47-1.29,.17-.19,.49-.28,.97-.28s.84,.05,1.07,.16c.23,.1,.48,.42,.74,.94,.26,.52,.39,.99,.39,1.41s-.09,.89-.28,1.41c-.52,1.46-.78,2.65-.78,3.54,0,.4,.05,.69,.16,.86,.1,.18,.16,.42,.16,.72s-.17,1.04-.5,2.21Zm3.92-8.59c.61-.98,1.49-1.73,2.65-2.24,1.16-.51,2.42-.77,3.79-.77s2.51,.28,3.43,.85c.92,.56,1.38,1.23,1.38,2.01,0,.29-.1,.65-.31,1.08-.21,.43-.46,1.09-.75,1.99-.77,2.34-1.68,3.72-2.73,4.14-.73,.69-1.25,1.32-1.57,1.88,.86-.04,1.48,.21,1.87,.77,.39,.55,.58,.94,.58,1.16s-.21,.4-.63,.55c-.31,.1-1.04,.67-2.16,1.69,.02,.1,.02,.22,0,.34,.69,.04,1.36,0,2.02-.14,.66-.14,1.04-.2,1.14-.2,.61,0,1.11,.26,1.52,.78,.41,.52,.61,1.01,.61,1.47s-.21,.69-.63,.69-.95-.07-1.58-.2c-.64-.14-1.28-.2-1.93-.2-1.48,0-3.14,.3-4.95,.91-.88,.29-1.45,.44-1.73,.44s-.54-.26-.8-.77c-.26-.51-.39-.89-.39-1.14,0-.59,.51-.94,1.54-1.07,.35-.04,.77-.17,1.25-.39,.48-.22,.83-.44,1.03-.67-.82-.19-1.48-.44-2.01-.77-.52-.32-.78-.6-.78-.83,0-.42,.22-.71,.66-.88,.86-.33,1.73-.92,2.63-1.76,.04-.33-.03-.5-.22-.5s-.44,.05-.77,.14c-.32,.09-.55,.14-.67,.14-.56,0-.87-.38-.91-1.13-.02-.27-.09-.58-.2-.92-.12-.35-.26-.61-.44-.78-.18-.18-.37-.71-.56-1.6-.2-.89-.33-1.77-.39-2.63-.06-.87-.16-1.4-.28-1.6-.13-.2-.19-.35-.19-.45s.05-.16,.16-.16c.25,0,.69,.26,1.32,.78Zm3.51,.85c.04-.67-.07-1.08-.34-1.22-.96,.12-1.66,.26-2.1,.41-.44,.15-.69,.4-.75,.75,.08,.29,.16,.84,.22,1.63,1.21-.61,2.21-1.13,2.98-1.57Zm-.13,3.23c-.82-.02-1.74-.3-2.76-.85,.12,.69,.3,1.52,.53,2.48,.42-.02,1.16-.56,2.23-1.63Zm2.41,.97c.36-.04,.68-.11,.97-.22,.29-.1,.48-.34,.56-.72l.66-2.26c.33-1.13,.56-1.86,.67-2.19s.17-.6,.17-.78c0-.33-.17-.5-.5-.5-.54,0-1.57,.2-3.07,.6,.1,.36,.16,.79,.16,1.32,.48,.1,.87,.35,1.16,.74,.29,.39,.44,.74,.44,1.07s-.05,.57-.16,.74c-.52,.84-.84,1.37-.96,1.6s-.15,.44-.11,.63Z"/>
    <path class="cls-2" d="M134.37,12.54c.44,.54,.72,1,.85,1.36,.13,.37,.19,.88,.19,1.55v4.17c.02,1.23-.02,2.84-.11,4.81s-.23,3.15-.39,3.51c-.17,.37-.35,.55-.55,.55s-.53-.45-1-1.36c-.47-.91-.71-1.59-.71-2.04s.06-1.03,.19-1.74c.25-1.36,.38-3.27,.38-5.74,0-1.38-.03-2.22-.09-2.51-.06-.29-.15-.44-.25-.44-.25,0-.95,.66-2.1,1.98-.54,.63-.97,.94-1.27,.94s-.54-.26-.71-.78c-.17-.52-.25-1.05-.25-1.58s.07-1.02,.22-1.47c.15-.45,.35-.67,.61-.67s.51-.1,.74-.31c.23-.21,.84-1.03,1.83-2.48,.99-1.44,1.7-2.57,2.12-3.39,.42-.82,.63-1.38,.63-1.71s-.05-.55-.14-.67c-.09-.13-.14-.3-.14-.53s.06-.34,.19-.34c.04,0,.08,.02,.13,.06,.31,.23,.63,.38,.94,.44,.59,.1,1.1,.42,1.55,.96,.45,.53,.67,1.06,.67,1.58s-.14,.95-.41,1.29c-.67,.84-1.24,1.67-1.72,2.49-.48,.83-.94,1.52-1.38,2.09Zm12.54-4.61c1.82-.38,3.08-.56,3.78-.56s1.24,.3,1.63,.89c.39,.6,.58,1.07,.58,1.41s-.31,.56-.92,.64c-.62,.08-1.3,.2-2.04,.36-.74,.16-1.32,.32-1.72,.49-.41,.17-.83,.31-1.27,.44,1.13,.42,1.69,.93,1.69,1.54,0,.21-.07,.4-.2,.58-.14,.18-.31,.31-.52,.39-1.55,.65-2.61,1.35-3.2,2.1,1.02-.19,1.83-.42,2.41-.69,.27-.13,.59-.19,.96-.19s.74,.17,1.11,.5c.38,.33,.56,.65,.56,.96s-.09,.55-.27,.75c-.18,.2-.42,.28-.72,.25-.3-.03-.6-.05-.88-.05s-.66,.11-1.13,.33c-.47,.22-.82,.33-1.05,.33s-.41-.08-.53-.25c-1.4,.61-2.32,1.05-2.74,1.32-.43,.27-.74,.43-.92,.47-.15,.21-.22,.43-.22,.67s.19,.4,.56,.49c1.96-.69,3.07-1.03,3.32-1.03,.5,0,.91-.18,1.22-.53,.17-.17,.39-.25,.66-.25,.56,0,1.19,.22,1.88,.66s1.04,1.09,1.04,1.94c0,.21-.06,.39-.17,.55s-.25,.46-.39,.91c-.15,.45-.31,.83-.5,1.13-.19,.3-.28,.51-.28,.61,0,.29,.17,.54,.5,.75,.12,.08,.19,.25,.19,.5s-.06,.48-.17,.69c-.12,.21-.25,.33-.41,.36-.16,.03-.43,.05-.82,.05s-.76-.04-1.13-.13c-.37-.08-.76-.13-1.19-.13s-.9,.11-1.41,.35c-.51,.23-.84,.47-.97,.72-.14,.25-.27,.38-.41,.38s-.33-.13-.6-.38c-.26-.25-.51-.71-.75-1.36-.24-.66-.42-1.38-.55-2.16-.13-.78-.25-1.37-.38-1.76-.13-.39-.19-.76-.19-1.11,0-.71,.18-1.31,.53-1.79-.75-.5-1.24-.87-1.46-1.1-.22-.23-.33-.56-.33-1s.19-.7,.56-.78c1.48-.25,2.7-.76,3.64-1.54-.65,0-1.21-.1-1.68-.3-.47-.2-.81-.4-1.02-.6-.21-.2-.31-.42-.31-.67,0-.56,.19-.85,.56-.85,.08,0,.18,.02,.3,.06,.11,.04,.22,.06,.33,.06,.31,0,.98-.16,2.01-.49,1.02-.32,1.66-.53,1.9-.63,.24-.09,.36-.18,.36-.27s-.01-.16-.03-.22c-.36,.13-.73,.2-1.11,.24-.39,.03-.7,.08-.94,.16-.24,.07-.41,.11-.5,.11s-.14-.02-.14-.06,.07-.09,.22-.16c.84-.35,1.77-.79,2.79-1.32,1.02-.52,1.57-.82,1.65-.88,.07-.06,.11-.15,.11-.25s-.12-.16-.34-.16-1.01,.26-2.35,.78c-1.34,.52-2.47,1.13-3.39,1.83-.92,.7-1.72,1.05-2.4,1.05s-1.29-.27-1.83-.8c-.54-.53-.81-.91-.81-1.14s.07-.38,.2-.45c.14-.07,.38-.11,.72-.11s.8-.12,1.38-.36c.57-.24,1.41-.64,2.51-1.19,1.1-.55,1.77-.95,2.02-1.18s.38-.4,.38-.52-.02-.19-.06-.23c-.52-.59-1-1.19-1.44-1.82-.44-.63-.66-1-.66-1.13s.05-.21,.16-.27,.29-.07,.55-.06c.26,.01,.53,.02,.8,.02s.51-.03,.72-.08c.21-.05,.37-.08,.47-.08,.52,0,1.13,.24,1.82,.72s1.03,1.14,1.03,1.98c0,.21-.06,.44-.17,.69-.12,.25-.17,.53-.17,.85Zm-3.95,15.37c.06,.88,.14,1.44,.22,1.68,.08,.24,.24,.36,.47,.36,.42,0,.97-.1,1.66-.3,.69-.2,1.15-.62,1.38-1.25,.23-.64,.35-1.08,.35-1.33s-.08-.38-.25-.38-.37,.05-.6,.16c-1.28,.59-2.35,.94-3.23,1.07Z"/>
    <path class="cls-2" d="M175.13,23.46c1.84,1.09,3.55,1.96,5.14,2.63,.65,.27,.97,.67,.97,1.19,0,.25-.1,.49-.31,.72-.21,.23-.82,.44-1.82,.63-1,.19-2.04,.28-3.12,.28s-2.2-.18-3.36-.55-2.21-.84-3.14-1.43c-.93-.59-1.53-1.12-1.8-1.6-.27-.48-.53-1.32-.78-2.51-.15-.65-.33-.97-.56-.97s-.47,.16-.72,.47c-.21,1.21-.45,2.3-.72,3.28-.27,.97-.49,1.57-.66,1.79-.17,.22-.36,.33-.56,.33s-.39-.22-.53-.66c-.15-.44-.22-.96-.22-1.55s.04-1.02,.12-1.27c.08-.25,.29-.63,.61-1.13,.32-.5,.61-1.02,.86-1.57,.5-1.09,1.26-1.63,2.29-1.63,.25,0,.38,.04,.38,.13s-.18,.16-.55,.23c-.37,.07-.63,.21-.78,.42-.16,.21-.25,.61-.27,1.19,.67-.46,1.15-.69,1.44-.69,.48,0,.95,.67,1.41,2.01,.33,1,1.12,1.83,2.37,2.48,1.24,.65,2.79,.97,4.63,.97,1.19,0,1.79-.09,1.79-.28,0-.12-.23-.41-.71-.85-.47-.44-1.18-.99-2.12-1.66-.59,.27-1.2,.59-1.85,.94-.25,.15-.5,.22-.74,.22s-.56-.35-.96-1.03c-.4-.69-.6-1.09-.6-1.19s.05-.2,.16-.28c.1-.08,.16-.21,.16-.38s-.04-.35-.11-.55c-.07-.2-.11-.33-.11-.39,0-.21,.18-.31,.55-.31s.65,.05,.85,.16c.2,.1,.44,.36,.74,.75,.19,.25,.37,.38,.55,.38s.85-.14,2.02-.41c1.17-.27,2.01-.5,2.52-.67,.51-.18,.86-.27,1.03-.27s.27,.03,.27,.09c0,.15-.39,.49-1.16,1.02-.77,.53-1.64,1.04-2.6,1.52Zm-6.52-12.39c.33-.15,.72-.37,1.16-.66,.44-.29,.69-.47,.75-.53,.06-.06,.09-.14,.09-.22,0-.19-.22-.29-.66-.31-.25-.02-.38-.1-.38-.25,0-.08,.14-.23,.41-.44l1.57-1.32c.79-.65,1.28-1.03,1.46-1.16,.18-.13,.42-.19,.74-.19s.86,.21,1.65,.63c.78,.42,1.27,.75,1.47,1,.2,.25,.3,.64,.3,1.18s-.11,2.02-.33,4.47c-.22,2.45-.39,4.06-.52,4.84-.13,.78-.28,1.44-.45,1.96-.18,.52-.31,.82-.39,.89-.08,.07-.21,.11-.39,.11s-.42-.21-.74-.63c-.31-.42-.47-1.02-.47-1.82-.23-.21-.43-.37-.6-.47-.56,.31-1.39,.54-2.48,.67-1.09,.14-1.85,.2-2.29,.2s-.75-.11-.94-.33c-.19-.22-.43-.67-.72-1.36-.29-.69-.44-1.48-.44-2.37s.07-2.07,.2-3.56c.14-1.48,.35-2.65,.66-3.5,.3-.85,1.06-1.75,2.27-2.71,.48-.4,.72-.71,.72-.94s-.15-.53-.44-.89c-.29-.37-.44-.6-.44-.71s.06-.16,.19-.16c.1,0,.44,.13,1,.38,.56,.25,.95,.4,1.16,.44,.56,.1,.96,.35,1.18,.74,.22,.39,.33,.72,.33,.99,0,.56-.34,.94-1.03,1.11-.69,.18-1.38,.49-2.07,.92-.36,.21-.7,.33-1.03,.38-.56,.06-.81,.48-.72,1.25,.15,1.25,.22,2.04,.22,2.35Zm-.25,2.63c.23-.38,.56-.6,1-.66,.15-.02,.22-.08,.22-.17s-.04-.14-.12-.14c-.33,0-.66-.16-.97-.47-.1,.38-.16,.66-.16,.86s.01,.39,.03,.58Zm.09,2.73c.48-.15,.89-.32,1.22-.52s.5-.35,.5-.44-.04-.14-.11-.14-.18,.05-.33,.14c-.15,.09-.33,.14-.56,.14s-.37-.1-.42-.3c-.05-.2-.18-.3-.39-.3,.02,.77,.05,1.24,.09,1.41Zm3.23-.03c.25-.04,.49-.06,.72-.06s.43,.09,.61,.27c.18,.18,.35,.47,.53,.88s.32,.61,.44,.61,.2-.02,.25-.06,.09-.1,.13-.17c.03-.07,.06-.23,.08-.49l.34-5.21c.06-.9,.09-1.6,.09-2.12s-.08-1.01-.24-1.5-.32-.74-.49-.74c-.08,0-.31,.15-.67,.46-.37,.3-.84,.63-1.43,.99,.94,.63,1.41,1.13,1.41,1.5s-.26,.77-.78,1.19c-.36,.27-.51,.53-.47,.78,.79,.19,1.19,.55,1.19,1.1,0,.27-.21,.69-.63,1.25-.42,.56-.67,.86-.75,.88-.29,.08-.41,.23-.35,.44Zm7.59,3.92c.31,0,.91,.14,1.79,.42,.88,.28,1.49,.67,1.83,1.18,.35,.5,.52,1,.52,1.51,0,.54-.42,.76-1.25,.66-.23-.02-.46-.03-.69-.03s-.51,.04-.85,.13c-.33,.08-.75,.13-1.25,.13s-1.04-.1-1.6-.3-.85-.39-.85-.58c0-.15,.29-.28,.86-.41,.57-.13,1.11-.31,1.6-.56,.49-.25,.74-.54,.74-.86s-.21-.61-.63-.86c-.25-.15-.38-.25-.38-.31s.05-.09,.16-.09Z"/>
    <path class="cls-2" d="M203.79,1.76c.84,0,1.79,.22,2.87,.67,1.08,.45,1.61,.98,1.61,1.58,0,.86-.33,1.4-1,1.63-.17,.04-.5,.2-.99,.47-.49,.27-.89,.52-1.21,.75-2.74,2.03-4.78,3.43-6.13,4.22-1.35,.78-2.42,1.18-3.21,1.18-.23,0-.39-.1-.47-.3s-.13-.57-.13-1.13,.04-.91,.11-1.07,.26-.25,.56-.27c.3-.02,.87-.3,1.71-.85,.84-.54,1.88-1.36,3.14-2.45,1.25-1.09,2.04-1.84,2.35-2.27,.31-.43,.45-.8,.42-1.11s-.05-.57-.05-.77,.14-.3,.41-.3Zm4.08,14.86c-.06-.36-.26-.68-.6-.97-.08-.06-.13-.16-.13-.28s.1-.19,.31-.19,.72,.14,1.54,.41c.82,.27,1.38,.61,1.69,1.02,.31,.41,.47,1.12,.47,2.15,0,.19-.07,.36-.2,.5-.14,.15-.31,.22-.52,.22-.12,0-.43-.13-.92-.38-.49-.25-.92-.44-1.27-.56-.36-.13-.69-.19-.99-.19s-.75,.07-1.33,.22c.19,.54,.28,1.03,.28,1.46s-.05,.8-.14,1.13c-.09,.32-.14,.8-.14,1.43s.05,1.32,.14,2.07c.09,.75,.14,1.3,.14,1.63,0,1.04-.2,1.84-.6,2.4-.4,.55-.76,.83-1.1,.83s-.62-.19-.86-.56c-.24-.38-.43-.64-.58-.78s-.34-.26-.6-.34c-.63-.23-1.57-.86-2.82-1.88-.69,.4-1.13,.69-1.33,.89-.2,.2-.42,.55-.66,1.07s-.54,.77-.89,.77c-.17,0-.3-.07-.41-.2-.1-.14-.27-.54-.49-1.21-.22-.67-.33-1.08-.33-1.22s.06-.32,.17-.52c.11-.2,.17-.43,.17-.71l-.09-.81c0-.27,.13-.41,.38-.41s.44,.08,.58,.25c.14,.17,.3,.48,.49,.94l5.86-1.82c-1.02,.84-1.9,1.66-2.63,2.48,1.02,.29,1.83,.44,2.43,.44s.89-.17,.89-.5l-.16-2.92c-.04-.96-.11-1.57-.22-1.83-.1-.26-.39-.49-.85-.67-1.32,.73-2.32,1.34-3.01,1.82-.36,.25-.72,.38-1.08,.38s-.75-.39-1.14-1.18c-.4-.78-.6-1.32-.6-1.61,0-.61,.44-.91,1.32-.91,.44,0,.86-.15,1.25-.45,.4-.3,1.18-1.05,2.35-2.24-.06-.1-.22-.16-.49-.16s-.57,.06-.92,.17c-.36,.11-.61,.23-.75,.36-.52,.46-1.03,.69-1.52,.69s-.83-.15-1.02-.44c-.19-.29-.28-.98-.28-2.07,0-.38,.1-.67,.3-.89,.2-.22,.54-.4,1.02-.55,.48-.17,1.66-.94,3.53-2.32,1.87-1.38,2.85-2.23,2.93-2.54s.24-.55,.47-.71,.5-.24,.8-.24,.71,.24,1.21,.71c.5,.47,.75,.85,.75,1.13s-.15,.49-.44,.61c-.88,.44-1.81,1.08-2.79,1.93-.98,.85-1.47,1.34-1.47,1.49s.32,.28,.97,.41c1.15-1,2.08-1.76,2.81-2.26,.72-.5,1.27-.75,1.66-.75s.77,.15,1.16,.45c.39,.3,.58,.63,.58,.99,0,.46-.31,.82-.94,1.07-.4,.17-.9,.47-1.51,.89-.61,.43-1.38,1.05-2.32,1.85-.94,.81-1.44,1.25-1.51,1.33-.06,.08-.09,.17-.09,.25s.05,.13,.16,.13,.2-.01,.28-.03c1.44-.35,2.65-.56,3.64-.63Zm-.91,5.33c.31-.06,.68-.09,1.1-.09,1.32,0,2.49,.25,3.51,.75,1.02,.5,1.54,1.16,1.54,1.98,0,.56-.26,1.21-.77,1.93-.51,.72-.92,1.08-1.21,1.08-.1,0-.2-.05-.28-.16-.36-.54-1.31-1.46-2.85-2.76-.08-.06-.13-.12-.13-.19s.06-.09,.17-.09,.29,.02,.52,.05,.48,.05,.75,.05c.77,0,1.16-.16,1.16-.47,0-.21-.24-.51-.72-.89-.48-.39-1.41-.78-2.79-1.18Z"/>
    <path class="cls-2" d="M228.32,17.78c.52,.42,.81,.69,.86,.82,.05,.12,.13,.19,.22,.19s.19-.07,.28-.22c.09-.15,.38-.82,.85-2.02,.47-1.2,.86-2.38,1.18-3.53,.31-1.15,.52-1.82,.63-2.02,.1-.2,.22-.3,.34-.3,.06,0,.09,.07,.09,.22,0,.25-.47,2.06-1.41,5.44-.94,3.38-1.62,5.51-2.02,6.4-.41,.89-.73,1.71-.97,2.48-.24,.76-.47,1.31-.69,1.65-.22,.33-.55,.5-.99,.5-.88,0-1.32-.9-1.32-2.7,0-.27,.04-.46,.13-.58,.08-.11,.27-.25,.55-.41,.28-.16,.55-.61,.82-1.36,.26-.75,.39-1.39,.39-1.91s-.09-.81-.28-.88c-1.09,.56-1.85,.85-2.29,.85s-.66-.43-.66-1.29c0-.38,.02-.76,.06-1.16,.04-.4,.09-.63,.16-.71,.06-.07,.18-.12,.35-.14,.73-.04,1.29-.39,1.68-1.03,.39-.65,.58-1.17,.58-1.57,0-.17-.1-.25-.31-.25s-.55,.08-1.02,.23c-.47,.16-.78,.24-.92,.24-.4,0-.74-.18-1.02-.55-.28-.37-.42-.84-.42-1.41s.05-.96,.16-1.16c.1-.2,.31-.3,.63-.3,.73,0,1.77-.64,3.12-1.93,1.35-1.29,2.02-2.24,2.02-2.87,0-.06-.02-.14-.05-.22s-.05-.16-.05-.22c0-.19,.2-.28,.6-.28,.69,0,1.38,.31,2.07,.93s1.03,1.08,1.03,1.4c0,.67-1.19,1.73-3.57,3.17-.46,.27-.69,.5-.69,.69,0,.15,.17,.32,.52,.53,.35,.21,.6,.48,.77,.82,.17,.33,.25,.6,.25,.8s-.11,.55-.33,1.05c-.22,.5-.65,1.38-1.3,2.63Zm12.01-1.47c.96,.48,1.44,.91,1.44,1.29,0,.23-.19,.56-.56,1-.38,.44-.88,1.38-1.5,2.84-.63,1.45-.94,2.37-.94,2.76s.18,.66,.55,.82c.37,.16,1.03,.23,1.99,.23s1.9-.05,2.82-.14c.92-.09,1.51-.2,1.76-.33,.25-.13,.49-.34,.72-.66,.23-.31,.43-.67,.61-1.08,.18-.41,.3-.8,.38-1.19,.07-.39,.11-.83,.11-1.32s.03-.74,.1-.74,.16,.18,.28,.55,.33,1.13,.61,2.29c.28,1.16,.42,1.94,.42,2.34s-.16,.74-.49,1.04c-.32,.29-1.08,.56-2.27,.8s-2.46,.36-3.79,.36-2.6-.18-3.79-.55c-1.19-.37-1.79-1.06-1.79-2.09,0-.63,.23-1.45,.69-2.48,.98-2.24,1.47-3.47,1.47-3.68s-.05-.4-.16-.55c-.59,.63-.98,1.07-1.19,1.32l-2.57,3.14c-1.76,2.11-2.73,3.25-2.93,3.4-.2,.16-.36,.24-.49,.24-.33,0-.5-.58-.5-1.72,0-.84,.17-1.33,.5-1.47,.33-.15,.94-.68,1.82-1.62,.88-.93,1.82-2.09,2.82-3.46-.33,.06-.8,.29-1.41,.69-.38,.25-.74,.38-1.08,.38s-.63-.18-.85-.55c-.22-.37-.33-.88-.33-1.55,0-.92,.38-1.39,1.13-1.41,.19,0,.35-.07,.5-.2,.15-.14,.48-.51,.99-1.13,.51-.62,.82-1.01,.93-1.19,.1-.18,.15-.33,.12-.46-.44,.15-.85,.22-1.22,.22-.75,0-1.31-.26-1.68-.77-.37-.51-.55-1.01-.55-1.49,0-.23,.07-.34,.2-.34s.24,.04,.31,.11c.07,.07,.17,.11,.3,.11,.61,0,1.73-.36,3.39-1.08,1.65-.72,2.48-1.29,2.48-1.71,0-.25-.19-.46-.56-.63-.92-.4-1.54-.72-1.85-.96-.31-.24-.67-.57-1.07-.99-.4-.42-.6-.75-.6-.99s.22-.36,.66-.36c1.32,0,2.45,.26,3.39,.77,.94,.51,1.41,1.06,1.41,1.65,0,.25-.09,.69-.28,1.32,1.34,.38,2.01,.86,2.01,1.44,0,.42-.37,.94-1.1,1.57-1.38,1.21-2.34,2.11-2.88,2.7-.54,.59-.86,1.11-.94,1.57,.73-.23,1.34-.62,1.82-1.18,.48-.55,.85-1.03,1.1-1.43,.1-.15,.35-.22,.74-.22s.84,.11,1.35,.33c.51,.22,.77,.61,.77,1.18s-.41,1.1-1.24,1.6c-.83,.5-1.51,1.07-2.05,1.69Z"/>
  </g>
</svg>